<svg width="24" height="24" viewBox="0 0 24 24" fill="none" xmlns="http://www.w3.org/2000/svg">
<path d="M22.9368 3.17332C23.523 3.17332 24 2.69637 24 2.11006C24 1.52381 23.523 1.04685 22.9368 1.04685H21.5195C21.4182 0.453339 20.9003 0 20.2784 0C19.6563 0 19.1385 0.453339 19.0371 1.04685H17.6198C17.0336 1.04685 16.5566 1.52381 16.5566 2.11011C16.5566 2.69637 17.0335 3.17332 17.6198 3.17332H19.0188V4.39916C18.9394 4.4626 18.8673 4.53469 18.8039 4.6141H16.401C15.5685 2.95718 13.868 1.89992 12 1.89992C10.132 1.89992 8.4316 2.95718 7.5991 4.6141H5.19615C5.13271 4.53469 5.06056 4.4626 4.98121 4.39916V3.17332H6.38018C6.96643 3.17332 7.44344 2.69637 7.44344 2.11006C7.44344 1.52381 6.96648 1.04685 6.38018 1.04685H4.96287C4.8615 0.453339 4.34371 0 3.72169 0C3.09968 0 2.58189 0.453339 2.48052 1.04685H1.06326C0.476952 1.04685 0 1.52385 0 2.11011C0 2.69637 0.476952 3.17332 1.06326 3.17332H2.46223V4.39916C2.15047 4.64831 1.95015 5.03139 1.95015 5.46058V8.18652C1.95015 8.93565 2.55963 9.54508 3.30871 9.54508H4.13468C4.56387 9.54508 4.94695 9.34481 5.19615 9.033H7.5991C7.61894 9.07248 7.63974 9.11134 7.6606 9.15014L2.64687 17.8342C2.55213 17.8125 2.45361 17.8006 2.35239 17.8006C1.62571 17.8006 1.03456 18.3918 1.03456 19.1185C1.03456 19.8451 1.62576 20.4363 2.35239 20.4363C2.73992 20.4363 3.08879 20.2681 3.33014 20.001L11.8365 23.9638C11.8883 23.9879 11.9442 24 12 24C12.0558 24 12.1117 23.9879 12.1635 23.9638L20.6699 20.001C20.9112 20.2681 21.2601 20.4362 21.6476 20.4362C22.3743 20.4362 22.9654 19.845 22.9654 19.1184C22.9654 18.3917 22.3742 17.8005 21.6476 17.8005C21.5463 17.8005 21.4479 17.8124 21.3531 17.8341L16.3395 9.15029C16.3603 9.11143 16.3811 9.07258 16.401 9.03305H18.8039C19.053 9.34481 19.4361 9.54513 19.8653 9.54513H20.6913C21.4404 9.54513 22.0499 8.93569 22.0499 8.18656V5.46063C22.0499 5.03144 21.8496 4.64835 21.5378 4.39921V3.17332H22.9368ZM20.2784 0.774194C20.4696 0.774194 20.6349 0.885677 20.7139 1.04685H19.8428C19.9218 0.885677 20.0871 0.774194 20.2784 0.774194ZM17.3309 2.11006C17.3309 1.95073 17.4605 1.82105 17.6199 1.82105H22.9368C23.0962 1.82105 23.2259 1.95073 23.2259 2.11011C23.2259 2.26945 23.0962 2.39913 22.9368 2.39913H17.6199C17.4605 2.39913 17.3309 2.26945 17.3309 2.11006ZM3.72169 0.774194C3.91297 0.774194 4.07826 0.885677 4.15727 1.04685H3.28611C3.36513 0.885677 3.53042 0.774194 3.72169 0.774194ZM0.774194 2.11006C0.774194 1.95073 0.903871 1.82105 1.06326 1.82105H6.38018C6.53956 1.82105 6.66924 1.95073 6.66924 2.11011C6.66924 2.26945 6.53956 2.39913 6.38018 2.39913H1.06326C0.903871 2.39913 0.774194 2.26945 0.774194 2.11006ZM3.23642 3.17332H4.20702V4.104C4.18306 4.10274 4.15897 4.10202 4.13473 4.10202H3.30871C3.28447 4.10202 3.26037 4.10269 3.23642 4.104V3.17332ZM4.71905 8.18656C4.71905 8.50877 4.45689 8.77094 4.13468 8.77094H3.30871C2.9865 8.77094 2.72434 8.50877 2.72434 8.18656V5.46063C2.72434 5.13842 2.9865 4.87626 3.30871 4.87626H4.13468C4.45689 4.87626 4.71905 5.13837 4.71905 5.46063V8.18656ZM11.6129 11.7315V13.3642C11.0746 13.53 10.6822 14.032 10.6822 14.624C10.6822 14.6854 10.6867 14.7457 10.6949 14.805L3.33014 18.2359C3.32584 18.2311 3.32134 18.2265 3.31698 18.2219L8.13595 9.87518C8.97808 10.9405 10.2348 11.6231 11.6129 11.7315ZM12.9778 15.5065L13.4953 15.7476L12 16.4442L10.5047 15.7476L11.0222 15.5065C11.2636 15.7737 11.6125 15.9419 12 15.9419C12.3875 15.9419 12.7364 15.7737 12.9778 15.5065ZM9.5881 16.1746L11.0834 16.8712L9.58805 17.5678L8.09279 16.8712L9.5881 16.1746ZM12 17.2982L13.4953 17.9948L12 18.6914L10.5047 17.9948L12 17.2982ZM7.17619 17.2982L8.67145 17.9948L7.17619 18.6914L5.68094 17.9948L7.17619 17.2982ZM9.58805 18.4218L11.0834 19.1184L9.5881 19.815L8.09279 19.1184L9.58805 18.4218ZM8.67145 20.2421L7.17619 20.9386L5.68089 20.2421L7.17615 19.5455L8.67145 20.2421ZM9.5881 20.6691L11.0834 21.3657L9.5881 22.0622L8.09284 21.3657L9.5881 20.6691ZM10.5047 20.2421L12 19.5455L13.4953 20.2421L12 20.9386L10.5047 20.2421ZM14.4119 20.6691L15.9072 21.3657L14.4119 22.0622L12.9166 21.3657L14.4119 20.6691ZM15.3285 20.2421L16.8238 19.5455L18.3191 20.2421L16.8238 20.9386L15.3285 20.2421ZM14.4119 19.815L12.9166 19.1185L14.4119 18.4219L15.9072 19.1185L14.4119 19.815ZM15.3285 17.9948L16.8238 17.2982L18.3191 17.9948L16.8238 18.6914L15.3285 17.9948ZM14.4119 17.5678L12.9166 16.8712L14.4119 16.1746L15.9072 16.8713L14.4119 17.5678ZM12 15.1677C11.7002 15.1677 11.4564 14.9238 11.4564 14.624C11.4564 14.3243 11.7002 14.0804 12 14.0804C12.2998 14.0804 12.5436 14.3243 12.5436 14.624C12.5436 14.9238 12.2998 15.1677 12 15.1677ZM2.35239 19.6621C2.05263 19.6621 1.80876 19.4182 1.80876 19.1185C1.80876 18.8187 2.05263 18.5748 2.35239 18.5748C2.65215 18.5748 2.89602 18.8187 2.89602 19.1185C2.89602 19.4182 2.65219 19.6621 2.35239 19.6621ZM3.65748 18.9375L4.76429 18.4218L6.25955 19.1184L4.76429 19.815L3.65753 19.2994C3.66571 19.2402 3.67026 19.1798 3.67026 19.1184C3.67026 19.057 3.66566 18.9967 3.65748 18.9375ZM12 23.1859L10.5047 22.4893L12 21.7927L13.4953 22.4893L12 23.1859ZM19.2357 19.815L17.7404 19.1185L19.2357 18.4219L20.3425 18.9375C20.3343 18.9967 20.3298 19.0571 20.3298 19.1185C20.3298 19.1799 20.3343 19.2402 20.3425 19.2994L19.2357 19.815ZM22.1912 19.1185C22.1912 19.4182 21.9474 19.6621 21.6476 19.6621C21.3479 19.6621 21.104 19.4182 21.104 19.1185C21.104 18.8187 21.3479 18.5748 21.6476 18.5748C21.9474 18.5748 22.1912 18.8187 22.1912 19.1185ZM20.683 18.2218C20.6786 18.2265 20.6742 18.2311 20.6699 18.2359L13.3051 14.805C13.3133 14.7457 13.3179 14.6854 13.3179 14.624C13.3179 14.032 12.9255 13.53 12.3871 13.3642V11.7315C13.7653 11.6231 15.022 10.9405 15.8641 9.87513L20.683 18.2218ZM16.1554 8.2589C16.0018 8.2589 15.8627 8.34973 15.801 8.49034C15.1386 9.99856 13.6466 10.9731 12 10.9731C10.3535 10.9731 8.86152 9.99856 8.19905 8.49034C8.13731 8.34973 7.99824 8.2589 7.84466 8.2589H5.49131C5.49256 8.23495 5.49329 8.21085 5.49329 8.18656V5.46063C5.49329 5.43639 5.49261 5.41229 5.49131 5.38834H7.84466C7.99824 5.38834 8.13731 5.29752 8.19905 5.1569C8.86147 3.64873 10.3534 2.67416 12 2.67416C13.6466 2.67416 15.1385 3.64873 15.801 5.1569C15.8627 5.29752 16.0018 5.38834 16.1554 5.38834H18.5087C18.5074 5.41229 18.5067 5.43639 18.5067 5.46063V8.18656C18.5067 8.21081 18.5074 8.23495 18.5087 8.2589H16.1554ZM21.2757 8.18656C21.2757 8.50877 21.0135 8.77094 20.6913 8.77094H19.8653C19.5431 8.77094 19.281 8.50877 19.281 8.18656V5.46063C19.281 5.13842 19.5431 4.87626 19.8653 4.87626H20.6913C21.0135 4.87626 21.2757 5.13837 21.2757 5.46063V8.18656ZM20.7636 4.104C20.7397 4.10274 20.7156 4.10202 20.6913 4.10202H19.8653C19.8411 4.10202 19.817 4.10269 19.793 4.104V3.17332H20.7637V4.104H20.7636ZM12 3.23894C10.0234 3.23894 8.41534 4.84698 8.41534 6.8236C8.41534 8.80016 10.0234 10.4083 12 10.4083C13.9766 10.4083 15.5847 8.80021 15.5847 6.8236C15.5847 4.84703 13.9766 3.23894 12 3.23894ZM12 9.63406C10.4503 9.63406 9.18953 8.37329 9.18953 6.8236C9.18953 5.2739 10.4503 4.01313 12 4.01313C13.5497 4.01313 14.8105 5.2739 14.8105 6.8236C14.8105 8.37329 13.5497 9.63406 12 9.63406ZM12.3871 5.10213C12.3871 5.3159 12.2138 5.48923 12 5.48923C11.2642 5.48923 10.6657 6.08782 10.6657 6.8236C10.6657 7.03737 10.4924 7.21069 10.2786 7.21069C10.0648 7.21069 9.89148 7.03737 9.89148 6.8236C9.89148 5.66095 10.8374 4.71503 12 4.71503C12.2138 4.71503 12.3871 4.88831 12.3871 5.10213Z" fill="#13EC5B"/>
</svg>
