<svg width="28" height="28" viewBox="0 0 28 28" fill="none" xmlns="http://www.w3.org/2000/svg">
<path fill-rule="evenodd" clip-rule="evenodd" d="M22.7039 4.2727C23.6331 2.76765 24.4688 2.06278 25.0963 1.87859C25.4779 1.76659 25.8005 1.82691 26.0461 2.01258C26.282 2.19102 26.4313 2.47972 26.4786 2.8354C26.5604 3.4514 26.3268 4.30929 25.6786 5.11248C26.125 5.39062 26.371 5.84327 26.4259 6.30188C26.4615 6.59954 26.416 6.90158 26.292 7.16195C26.1632 7.43238 25.9509 7.65786 25.6577 7.79031C25.2937 7.9547 24.8088 7.96897 24.2157 7.72704L24.3634 8.0644C24.4295 8.21611 24.3602 8.3928 24.2084 8.45892C24.0567 8.52504 23.88 8.45569 23.8139 8.30394L23.6666 7.96744C23.4417 8.56687 23.1018 8.91332 22.7336 9.06934C22.4381 9.19458 22.1291 9.19747 21.8438 9.10883C21.5677 9.02308 21.3147 8.85163 21.1205 8.62375C20.8205 8.27189 20.6545 7.78397 20.7527 7.26788C19.7235 7.19914 18.935 6.78844 18.5377 6.31014C18.3088 6.03451 18.1982 5.72925 18.2272 5.43503C18.2574 5.12851 18.432 4.85036 18.773 4.64622C19.3348 4.30983 20.4196 4.17377 22.1542 4.51185L22.0859 4.35577C22.0198 4.20407 22.0892 4.02737 22.2409 3.96126C22.3927 3.89514 22.5693 3.96448 22.6354 4.11624L22.7039 4.2727H22.7039Z" fill="black"/>
<path fill-rule="evenodd" clip-rule="evenodd" d="M13.8252 5.88171C16.0095 5.88171 17.987 6.7671 19.4185 8.1986C20.8499 9.63005 21.7353 11.6076 21.7353 13.7919C21.7353 15.9762 20.8499 17.9537 19.4185 19.3852C17.987 20.8166 16.0095 21.702 13.8252 21.702C11.6409 21.702 9.66338 20.8166 8.23187 19.3852C6.80043 17.9537 5.91504 15.9762 5.91504 13.7919C5.91504 11.6076 6.80043 9.63005 8.23187 8.19855C9.66332 6.7671 11.6409 5.88171 13.8252 5.88171Z" fill="black"/>
<path fill-rule="evenodd" clip-rule="evenodd" d="M6.13947 7.29377L6.19318 7.80969L6.54285 8.28586C6.64074 8.4194 6.61187 8.60709 6.47826 8.70504C6.34472 8.80293 6.15703 8.77405 6.05908 8.64045L5.66156 8.0991C5.63105 8.05743 5.61081 8.00739 5.60518 7.95232L5.56668 7.58263C5.46119 7.62715 5.35433 7.66794 5.24659 7.70519L5.27022 8.31009L5.51401 8.53097C5.63657 8.64182 5.64603 8.83109 5.53512 8.95365C5.42422 9.0762 5.235 9.08566 5.11244 8.97476L4.78487 8.67797C4.72121 8.6253 4.67948 8.54672 4.67637 8.45769L4.65356 7.87423C4.35923 7.94149 4.06403 7.98584 3.77626 8.011C3.01031 8.07799 2.28849 8.00865 1.7759 7.87554C1.36422 7.76862 1.0613 7.60489 0.933608 7.4166C0.918569 7.39615 0.905881 7.37345 0.896092 7.34873C0.835115 7.19441 0.910858 7.0199 1.06519 6.95892C1.37789 6.83505 1.72942 6.646 2.04387 6.45481C2.41017 6.23207 2.71915 6.01337 2.85533 5.89366C3.20478 4.81528 3.59919 4.19966 4.11057 3.832C4.59816 3.4814 5.15844 3.37459 5.86708 3.31985C6.11656 2.78287 6.46869 2.49423 6.83576 2.38978C7.05959 2.32607 7.28605 2.33148 7.49808 2.3918C7.70348 2.45021 7.89505 2.56112 8.05627 2.7108C8.36383 2.99626 8.5618 3.42616 8.53178 3.90222L9.52129 5.2746C9.58052 5.35105 9.60163 5.45474 9.56865 5.55334C9.51615 5.71024 9.34635 5.7949 9.1894 5.7424L7.79268 5.27504C7.47095 6.21298 6.86436 6.86125 6.13942 7.29388L6.13947 7.29377Z" fill="black"/>
<path fill-rule="evenodd" clip-rule="evenodd" d="M1.82422 7.26778C1.85643 7.27708 1.89039 7.28637 1.92599 7.29561C2.37837 7.41308 3.02554 7.4734 3.72439 7.41226C4.41881 7.35156 5.15573 7.17033 5.78726 6.80501C6.4842 6.40186 7.05754 5.76923 7.30467 4.81767C7.34618 4.65754 7.50964 4.56135 7.66982 4.6028C7.6766 4.60455 7.68322 4.60652 7.68978 4.60871L8.49746 4.87892L7.97842 4.15901C7.93112 4.09333 7.91433 4.01497 7.92516 3.94076L7.92439 3.94065C7.97055 3.62466 7.84783 3.3358 7.64745 3.14981C7.55574 3.06472 7.44795 3.00199 7.33349 2.9694C7.22559 2.93872 7.11146 2.93565 6.99995 2.96737C6.76108 3.03535 6.52291 3.26225 6.34983 3.71304C6.30663 3.82597 6.20239 3.89766 6.08913 3.90483V3.90559C5.39433 3.95027 4.86703 4.02558 4.46027 4.31804C4.04705 4.61516 3.71761 5.15761 3.40474 6.1474C3.38757 6.20176 3.3564 6.2478 3.31642 6.2828C3.17188 6.42368 2.79306 6.701 2.35605 6.96672C2.18559 7.07036 2.00496 7.1735 1.82433 7.26772L1.82422 7.26778Z" fill="#FFE396"/>
<path fill-rule="evenodd" clip-rule="evenodd" d="M22.7736 10.5752C22.7178 10.4196 22.7988 10.2482 22.9543 10.1924C23.11 10.1367 23.2813 10.2176 23.3371 10.3732C23.5323 10.9162 23.6822 11.478 23.782 12.0539C23.8802 12.62 23.9314 13.2007 23.9314 13.792C23.9314 14.3832 23.8802 14.964 23.782 15.53C23.6821 16.1059 23.5323 16.6677 23.3371 17.2107C23.2813 17.3663 23.1099 17.4473 22.9543 17.3915C22.7987 17.3357 22.7177 17.1643 22.7735 17.0087C22.9552 16.5034 23.0955 15.9755 23.1903 15.429C23.2823 14.8986 23.3303 14.3516 23.3303 13.792C23.3303 13.2323 23.2823 12.6853 23.1903 12.1549C23.0956 11.6084 22.9552 11.0805 22.7736 10.5752V10.5752Z" fill="black"/>
<path fill-rule="evenodd" clip-rule="evenodd" d="M17.0419 22.7396C17.1976 22.6838 17.369 22.7648 17.4247 22.9204C17.4805 23.076 17.3995 23.2473 17.2439 23.3031C16.701 23.4984 16.1392 23.6482 15.5633 23.7481C14.9972 23.8463 14.4164 23.8975 13.8252 23.8975C13.2339 23.8975 12.6532 23.8463 12.0871 23.7481C11.5112 23.6482 10.9494 23.4984 10.4064 23.3031C10.2508 23.2473 10.1699 23.0759 10.2256 22.9204C10.2814 22.7647 10.4528 22.6838 10.6084 22.7396C11.1137 22.9212 11.6416 23.0616 12.1881 23.1563C12.7185 23.2484 13.2655 23.2963 13.8252 23.2963C14.3848 23.2963 14.9318 23.2484 15.4623 23.1563C16.0088 23.0616 16.5367 22.9212 17.0419 22.7396Z" fill="black"/>
<path fill-rule="evenodd" clip-rule="evenodd" d="M4.87757 17.0087C4.93335 17.1643 4.85236 17.3357 4.69677 17.3914C4.54113 17.4472 4.3698 17.3662 4.31402 17.2106C4.11884 16.6676 3.96899 16.1058 3.86908 15.5299C3.77091 14.9639 3.71973 14.3831 3.71973 13.7919C3.71973 13.2006 3.77091 12.6199 3.86908 12.0538C3.96899 11.4779 4.11884 10.9161 4.31402 10.3731C4.3698 10.2175 4.54119 10.1365 4.69677 10.1923C4.85241 10.2481 4.93335 10.4195 4.87757 10.5751C4.6959 11.0803 4.55562 11.6083 4.4608 12.1548C4.36881 12.6852 4.32085 13.2322 4.32085 13.7919C4.32085 14.3515 4.36881 14.8985 4.4608 15.4289C4.55557 15.9754 4.6959 16.5034 4.87757 17.0087Z" fill="black"/>
<path fill-rule="evenodd" clip-rule="evenodd" d="M10.6084 4.8443C10.4528 4.90008 10.2814 4.81909 10.2256 4.6635C10.1699 4.50786 10.2508 4.33647 10.4064 4.28075C10.9494 4.08551 11.5112 3.93567 12.0871 3.83581C12.6532 3.73759 13.234 3.6864 13.8252 3.6864C14.4163 3.6864 14.9972 3.73759 15.5632 3.83581C16.1392 3.93567 16.701 4.08551 17.2439 4.28075C17.3995 4.33653 17.4805 4.50792 17.4247 4.6635C17.3689 4.81914 17.1975 4.90008 17.0419 4.8443C16.5367 4.66263 16.0087 4.5223 15.4622 4.42753C14.9318 4.33549 14.3848 4.28753 13.8252 4.28753C13.2656 4.28753 12.7185 4.33549 12.1881 4.42753C11.6416 4.5223 11.1137 4.66263 10.6084 4.8443Z" fill="black"/>
<path fill-rule="evenodd" clip-rule="evenodd" d="M2.55299 19.0181C4.40252 19.2176 5.77808 19.7753 6.67949 20.6911C7.59217 21.6183 8.00834 22.8944 7.92811 24.5193C7.92204 24.6423 7.91275 24.7713 7.90012 24.9063C7.89355 24.9766 7.88628 25.0463 7.87835 25.1153C8.13456 25.3007 8.39411 25.4711 8.65043 25.6191C8.79371 25.7014 8.84315 25.8843 8.76079 26.0277C8.67843 26.171 8.4955 26.2204 8.35216 26.138C8.05838 25.9685 7.76148 25.7721 7.47011 25.5586L6.90858 25.4987C6.89561 25.4974 6.88293 25.4952 6.87057 25.4922C5.18898 25.1774 4.06379 24.5094 3.33458 23.4714C2.6132 22.4445 2.29645 21.0705 2.22191 19.3281C2.21546 19.1627 2.34419 19.0234 2.50957 19.017C2.52428 19.0164 2.53877 19.0169 2.55299 19.0184V19.0181Z" fill="black"/>
<path fill-rule="evenodd" clip-rule="evenodd" d="M6.25229 21.1114C5.50712 20.3543 4.36956 19.8697 2.83984 19.6576C2.93462 21.1174 3.22452 22.2706 3.82553 23.1261C4.39931 23.943 5.27109 24.5004 6.54656 24.8101C6.41028 24.6888 6.27788 24.5658 6.15041 24.4424C5.45008 23.7642 4.89101 23.0629 4.65569 22.5425C4.5876 22.3915 4.65492 22.2137 4.80597 22.1457C4.95707 22.0776 5.13475 22.1449 5.20284 22.2959C5.40797 22.7496 5.91913 23.3839 6.56838 24.0127C6.80376 24.2406 7.0562 24.4666 7.31793 24.6818C7.32247 24.6187 7.32635 24.5551 7.32952 24.491C7.40122 23.0403 7.04214 21.9137 6.25234 21.1113L6.25229 21.1114Z" fill="#FFE396"/>
<path fill-rule="evenodd" clip-rule="evenodd" d="M16.9671 7.19084C16.9205 7.21031 16.8433 7.25411 16.7714 7.29491C16.6548 7.36114 16.5463 7.42277 16.4312 7.44399C16.3198 7.46455 16.2254 7.50179 16.1475 7.54724C16.0601 7.59826 15.9972 7.6576 15.9566 7.71316C15.9038 7.78546 15.8833 7.87317 15.8601 7.97281C15.8522 8.00672 15.8439 8.04205 15.8299 8.09449C15.7993 8.20934 15.7551 8.33873 15.693 8.46571C15.6399 8.57405 15.5741 8.67938 15.4928 8.7712C15.3912 8.88604 15.2814 8.96556 15.1734 9.04272C15.2964 9.03392 15.4311 9.02008 15.5467 9.00821L15.5889 9.004C15.7542 8.98716 15.8702 8.97611 15.9532 8.96966C16.042 8.96271 16.1265 8.95812 16.2226 8.95462C16.3157 8.95117 16.4112 8.94948 16.5139 8.96031C16.6273 8.97223 16.7444 8.99799 16.8667 9.04928H16.8678C16.9811 9.09675 17.1013 9.16905 17.2107 9.25212C17.321 9.33579 17.4206 9.43204 17.4915 9.52649C17.5694 9.63039 17.6159 9.73424 17.6381 9.83274C17.6673 9.9618 17.6554 10.0818 17.617 10.1844C17.5763 10.293 17.5095 10.3805 17.407 10.4483C17.3254 10.5022 17.2252 10.54 17.0998 10.5624V10.5627C17.0075 10.5791 16.8972 10.5874 16.7706 10.5968C16.6497 10.6059 16.512 10.6161 16.3718 10.6362C16.1853 10.6628 15.9679 10.7104 15.7481 10.7585C15.6672 10.7762 15.5859 10.794 15.4309 10.8255C15.2708 10.8582 15.3753 10.8375 15.3357 10.8453C15.0794 10.8964 14.8364 10.9448 14.6816 11.0646C14.6094 11.1205 14.5456 11.1975 14.4915 11.2798C14.4143 11.3973 14.3573 11.5263 14.3219 11.6266C14.2817 11.7405 14.2735 11.8125 14.2666 11.8737C14.2623 11.9114 14.2583 11.9465 14.2506 11.9869C14.2457 12.0125 14.239 12.0394 14.2321 12.0673C14.2184 12.1231 14.2025 12.1876 14.2188 12.2721C14.2321 12.3404 14.2612 12.4254 14.2998 12.5172C14.3486 12.633 14.4099 12.7551 14.4742 12.8689C14.5311 12.9698 14.5902 13.0638 14.655 13.14C14.7018 13.1951 14.749 13.2366 14.7965 13.2558C14.8976 13.297 15.0707 13.2691 15.2166 13.2457L15.2638 13.2382H15.2649C15.3776 13.2206 15.4784 13.2084 15.5718 13.2114C15.7096 13.2158 15.8278 13.2509 15.9276 13.3365C16.0209 13.4165 16.0751 13.5234 16.1085 13.6372C16.1336 13.7224 16.1459 13.8047 16.1563 13.8777L16.1587 13.8944C16.1729 13.9944 16.1842 14.0735 16.2208 14.1629C16.2415 14.2136 16.2814 14.2926 16.3267 14.3823C16.367 14.4623 16.4118 14.5509 16.4633 14.6636C16.5175 14.7822 16.5719 14.9138 16.609 15.0565C16.6496 15.2134 16.6687 15.3801 16.6447 15.5526C16.6236 15.7033 16.5725 15.8407 16.5203 15.9808C16.4745 16.1039 16.4276 16.2298 16.4179 16.3439C16.4012 16.5411 16.4899 16.7854 16.579 17.0308C16.5808 17.0357 16.5836 17.0436 16.579 17.0308L16.6255 17.1607H16.6266C16.7061 17.3829 16.7824 17.5963 16.8614 17.6336C16.89 17.647 16.9394 17.6413 16.9991 17.6196C17.0861 17.588 17.1772 17.5251 17.2567 17.4351C17.4285 17.2408 17.5582 16.902 17.6951 16.5445C17.711 16.503 17.7033 16.5229 17.6951 16.5445L17.6954 16.5447L17.8116 16.2441C17.9479 15.8948 18.0844 15.5453 18.146 15.2564C18.1811 15.0918 18.1938 14.9323 18.206 14.7792C18.2195 14.6102 18.2324 14.4481 18.2738 14.269C18.3339 14.0085 18.4479 13.7535 18.5473 13.531C18.5751 13.4687 18.6016 13.4095 18.6327 13.3347C18.6772 13.2272 18.7065 13.1412 18.7202 13.0741C18.729 13.0315 18.7312 13.0026 18.7271 12.986C18.7244 12.9752 18.7171 12.9593 18.7101 12.9441C18.6387 12.7882 18.5752 12.6494 18.7416 12.4102C18.8016 12.324 18.8988 12.2348 19.0056 12.137C19.1031 12.0476 19.211 11.9487 19.2733 11.8605C19.3628 11.7337 19.3628 11.5861 19.3628 11.4905C19.3628 11.058 19.3628 10.8615 19.9269 11.0785C20.039 11.1216 20.2114 11.2111 20.3883 11.3467C20.5173 11.4456 20.6532 11.5712 20.7771 11.7247C20.8037 11.7576 20.8322 11.7851 20.8618 11.8086C20.5184 10.5874 19.8656 9.4957 18.9934 8.62349C18.4078 8.03789 17.7232 7.55128 16.967 7.19067L16.9671 7.19084Z" fill="#FFE396"/>
<path fill-rule="evenodd" clip-rule="evenodd" d="M16.9671 7.19084C16.9205 7.21031 16.8433 7.25411 16.7714 7.29491C16.6548 7.36114 16.5463 7.42277 16.4312 7.44399C16.3198 7.46455 16.2254 7.50179 16.1475 7.54724C16.0601 7.59826 15.9972 7.6576 15.9566 7.71316C15.9038 7.78546 15.8833 7.87317 15.8601 7.97281C15.8522 8.00672 15.8439 8.04205 15.8299 8.09449C15.7993 8.20934 15.7551 8.33873 15.693 8.46571C15.6399 8.57405 15.5741 8.67938 15.4928 8.7712C15.3912 8.88604 15.2814 8.96556 15.1734 9.04272C15.2964 9.03392 15.4311 9.02008 15.5467 9.00821L15.5889 9.004C15.7542 8.98716 15.8702 8.97611 15.9532 8.96966C16.042 8.96271 16.1265 8.95812 16.2226 8.95462C16.3157 8.95117 16.4112 8.94948 16.5139 8.96031C16.6273 8.97223 16.7444 8.99799 16.8667 9.04928H16.8678C16.9811 9.09675 17.1013 9.16905 17.2107 9.25212C17.321 9.33579 17.4206 9.43204 17.4915 9.52649C17.5694 9.63039 17.6159 9.73424 17.6381 9.83274C17.6673 9.9618 17.6554 10.0818 17.617 10.1844C17.5763 10.293 17.5095 10.3805 17.407 10.4483C17.3254 10.5022 17.2252 10.54 17.0998 10.5624V10.5627C17.0075 10.5791 16.8972 10.5874 16.7706 10.5968C16.6497 10.6059 16.512 10.6161 16.3718 10.6362C16.1853 10.6628 15.9679 10.7104 15.7481 10.7585C15.6672 10.7762 15.5859 10.794 15.4309 10.8255C15.2708 10.8582 15.3753 10.8375 15.3357 10.8453C15.0794 10.8964 14.8364 10.9448 14.6816 11.0646C14.6094 11.1205 14.5456 11.1975 14.4915 11.2798C14.4143 11.3973 14.3573 11.5263 14.3219 11.6266C14.2817 11.7405 14.2735 11.8125 14.2666 11.8737C14.2623 11.9114 14.2583 11.9465 14.2506 11.9869C14.2457 12.0125 14.239 12.0394 14.2321 12.0673C14.2184 12.1231 14.2025 12.1876 14.2188 12.2721C14.2321 12.3404 14.2612 12.4254 14.2998 12.5172C14.3486 12.633 14.4099 12.7551 14.4742 12.8689C14.5311 12.9698 14.5902 13.0638 14.655 13.14C14.7018 13.1951 14.749 13.2366 14.7965 13.2558C14.8976 13.297 15.0707 13.2691 15.2166 13.2457L15.2638 13.2382H15.2649C15.3776 13.2206 15.4784 13.2084 15.5718 13.2114C15.7096 13.2158 15.8278 13.2509 15.9276 13.3365C15.989 13.3891 16.0334 13.4534 16.0662 13.5237C17.6426 12.6496 19.0111 11.4463 20.0788 10.0065C19.7731 9.50237 19.4081 9.03813 18.9935 8.62349C18.4079 8.03789 17.7232 7.55128 16.967 7.19067L16.9671 7.19084Z" fill="#FFE396"/>
<path fill-rule="evenodd" clip-rule="evenodd" d="M21.0259 12.5306L20.9952 12.5215C20.7863 12.4594 20.5412 12.3866 20.3101 12.1005C20.2199 11.9888 20.12 11.8966 20.0246 11.8235C19.9977 11.803 19.9716 11.784 19.9464 11.7667C19.9244 11.8986 19.875 12.049 19.7643 12.2058C19.6688 12.3412 19.5327 12.4659 19.4098 12.5786C19.3531 12.6306 19.3001 12.6792 19.2651 12.7171C19.2815 12.7536 19.2978 12.7926 19.3098 12.8406C19.3357 12.9446 19.335 13.0604 19.3076 13.1941C19.2852 13.3034 19.2451 13.4254 19.1871 13.565C19.1658 13.6165 19.1311 13.694 19.0948 13.7755C19.007 13.9718 18.9064 14.197 18.8588 14.4031C18.8285 14.5348 18.817 14.6775 18.8052 14.8265C18.7915 14.997 18.7774 15.1747 18.7334 15.3811C18.6616 15.718 18.5161 16.0905 18.3708 16.4628C18.3278 16.573 18.3074 16.6244 18.2973 16.6507C18.2103 16.8762 18.3249 16.5801 18.2566 16.7585C18.1004 17.1664 17.9524 17.5529 17.7056 17.8322C17.5578 17.9994 17.3799 18.1195 17.2036 18.1835C16.9959 18.2589 16.7837 18.26 16.6057 18.1763C16.3004 18.0326 16.1831 17.7046 16.061 17.363L16.042 17.3067C16.01 17.2176 16.0449 17.3156 16.0157 17.2353C15.9035 16.9264 15.7918 16.6189 15.8194 16.2949C15.8356 16.1046 15.8982 15.9364 15.9594 15.7721C15.9993 15.6648 16.0385 15.5597 16.0509 15.4706C16.063 15.3839 16.0519 15.2943 16.0293 15.207C16.003 15.1057 15.961 15.0051 15.9188 14.9127C15.8794 14.8266 15.8333 14.7351 15.7916 14.6525C15.7448 14.5598 15.7036 14.4781 15.6669 14.3885C15.5999 14.2246 15.5844 14.1162 15.565 13.9791L15.5626 13.9624C15.5552 13.9104 15.5467 13.8527 15.5346 13.8102C15.4884 13.811 15.4278 13.8191 15.358 13.8299L15.3108 13.8376C15.0887 13.8733 14.8252 13.9156 14.5714 13.8125C14.4259 13.7534 14.3042 13.6532 14.1974 13.5275C14.1085 13.4229 14.029 13.2969 13.9532 13.1625C13.8772 13.0278 13.805 12.8843 13.7484 12.7498C13.6931 12.6186 13.6507 12.4927 13.6298 12.3849C13.5888 12.1731 13.6217 12.0397 13.6501 11.9242C13.6543 11.9074 13.6583 11.8912 13.6615 11.8743C13.6651 11.8558 13.6677 11.8328 13.6705 11.8081C13.681 11.7149 13.6935 11.6051 13.7563 11.4271C13.8033 11.2939 13.8815 11.1188 13.9917 10.9511C14.0792 10.818 14.1869 10.6901 14.3156 10.5903C14.5834 10.3829 14.8937 10.3211 15.221 10.256C15.3223 10.2359 15.2136 10.2585 15.3115 10.2386C15.3643 10.2278 15.4933 10.1996 15.6216 10.1715C15.848 10.122 16.072 10.0729 16.2876 10.0421C16.4532 10.0185 16.5986 10.0076 16.7263 9.99816C16.8314 9.99034 16.9242 9.9835 16.9945 9.97098C17.0184 9.96671 17.0384 9.9625 17.0522 9.95823C17.0465 9.93816 17.0339 9.9141 17.0127 9.88577C16.9745 9.83491 16.9165 9.77968 16.8494 9.72877C16.7832 9.67851 16.7084 9.63394 16.6356 9.60342C16.5714 9.57662 16.5111 9.56279 16.4531 9.55672C16.384 9.54944 16.3136 9.55081 16.244 9.55338C16.1773 9.55584 16.102 9.56033 15.998 9.56848C15.8883 9.57701 15.7786 9.58712 15.649 9.60036L15.608 9.60468C15.2858 9.63771 14.843 9.68316 14.6193 9.60331C14.5431 9.57613 14.4825 9.53544 14.4356 9.4842C14.3743 9.41737 14.3417 9.3395 14.3332 9.2561C14.3263 9.18812 14.3357 9.12184 14.3584 9.05835C14.3983 8.94651 14.4875 8.83249 14.5907 8.73788C14.6676 8.66739 14.7419 8.6144 14.8172 8.56064C14.9013 8.50059 14.9871 8.4394 15.0447 8.37437C15.0878 8.32565 15.1246 8.26604 15.1555 8.20271C15.1967 8.1186 15.2277 8.02651 15.2502 7.94185C15.2572 7.9156 15.2666 7.87551 15.2757 7.83658C15.3135 7.67432 15.3469 7.53148 15.4732 7.35855C15.5577 7.24294 15.6812 7.12373 15.8449 7.02824C15.9481 6.96803 16.069 6.91635 16.2083 6.88009C15.4615 6.62268 14.6599 6.48279 13.8256 6.48279C13.7596 6.48279 13.6937 6.48372 13.6281 6.48547C13.6949 6.52151 13.7565 6.55793 13.8115 6.59599L13.8139 6.59719L13.8221 6.60299L13.8244 6.60534C14.0225 6.74808 14.1079 6.93352 14.105 7.14292C14.1026 7.31781 14.0326 7.49669 13.9137 7.66852L13.8964 7.69275C13.7788 7.85588 13.6124 8.02022 13.4307 8.14573C13.2568 8.26593 13.0637 8.35463 12.8758 8.38148C12.5566 8.42709 12.3109 8.3058 12.079 8.19128C12.0262 8.16525 11.9744 8.1396 11.9263 8.1192C11.8333 8.07966 11.7476 8.05598 11.6793 8.05319L11.636 8.05166C11.6322 8.05473 11.6262 8.07775 11.6191 8.11193C11.6046 8.18259 11.6028 8.272 11.6077 8.36458C11.6087 8.38389 11.6131 8.43672 11.6175 8.48916C11.6366 8.7183 11.6551 8.94039 11.5247 9.16986C11.4348 9.32818 11.2987 9.43799 11.1468 9.56066C11.0645 9.6271 10.9761 9.69847 10.9002 9.77651C10.7792 9.90092 10.665 10.0659 10.5574 10.2215C10.4863 10.3243 10.4176 10.4235 10.3547 10.5036C10.2329 10.6586 10.1145 10.7726 10.0089 10.8744C9.95973 10.9217 9.91384 10.966 9.87239 11.0114C9.82498 11.0633 9.78669 11.114 9.75984 11.1647C9.73573 11.2102 9.71943 11.2577 9.71243 11.3087C9.70477 11.3641 9.70663 11.427 9.71571 11.494C9.72714 11.5784 9.74907 11.666 9.77789 11.7524C9.806 11.8366 9.84073 11.9204 9.88081 12.0024C9.9203 12.0831 9.96804 12.1658 10.0223 12.2487C10.0734 12.3267 10.1258 12.3977 10.1835 12.4601C10.2428 12.5243 10.3137 12.5874 10.403 12.6512C10.4631 12.6941 10.5329 12.7382 10.6052 12.7839C10.788 12.8994 10.9859 13.0244 11.1554 13.1988C11.2785 13.3254 11.3704 13.4601 11.4667 13.6014C11.552 13.7265 11.6413 13.8575 11.7509 13.9751C11.8641 14.0966 12.0062 14.2149 12.1407 14.3269C12.2964 14.4565 12.4433 14.5788 12.5489 14.7019C12.6795 14.8543 12.7455 15.0003 12.7696 15.1714C12.7906 15.3208 12.7753 15.473 12.7435 15.6635C12.7114 15.8564 12.6615 16.0964 12.5998 16.3131C12.5479 16.4952 12.4858 16.6672 12.4152 16.7955C12.2867 17.0292 12.1485 17.1102 12.0256 17.1822C11.9981 17.1983 11.9723 17.2134 11.9598 17.2252C11.9412 17.2428 11.9219 17.2811 11.8981 17.3451C11.8635 17.4381 11.8274 17.5728 11.7822 17.7552L11.7487 17.8908C11.6546 18.2763 11.5331 18.7736 11.3784 19.0752C11.2692 19.2879 11.1419 19.4126 11.0108 19.4864C10.8687 19.5663 10.7363 19.5825 10.6173 19.5825C10.4993 19.5825 10.3872 19.5654 10.2782 19.5127C10.1613 19.4563 10.0632 19.3662 9.98778 19.2246C9.92927 19.1148 9.88765 18.9782 9.85423 18.807C9.82427 18.6535 9.79916 18.4679 9.7722 18.2434C9.76241 18.1617 9.74765 18.033 9.73245 17.9002C9.69077 17.5361 9.64478 17.1351 9.59567 16.8536C9.56565 16.6817 9.53552 16.5609 9.50123 16.4682C9.47093 16.3863 9.43593 16.3242 9.39295 16.2632C9.35805 16.2136 9.31873 16.1645 9.27761 16.1131C9.17961 15.9908 9.07297 15.8576 8.97628 15.6781C8.90234 15.5407 8.83721 15.3794 8.78936 15.2136C8.7432 15.0537 8.71296 14.8886 8.70596 14.735C8.69623 14.5209 8.72942 14.3475 8.76032 14.1861C8.77279 14.1209 8.78482 14.0581 8.79155 14.0008C8.8003 13.9263 8.80073 13.8559 8.78755 13.7875C8.77437 13.7192 8.74665 13.647 8.69885 13.5665C8.64433 13.4748 8.56547 13.3747 8.47321 13.2771C8.37751 13.1758 8.26884 13.0791 8.15892 12.9986C8.00279 12.8844 7.83583 12.7984 7.68817 12.7222C7.61691 12.6855 7.54943 12.6507 7.49616 12.6207C7.37995 12.5553 7.27998 12.4882 7.18439 12.3969C7.08896 12.3057 7.00441 12.1959 6.9214 12.0472C6.87896 11.9712 6.83669 11.884 6.79458 11.7888C6.61351 12.4254 6.5166 13.0974 6.5166 13.7921C6.5166 15.8105 7.33467 17.6377 8.65734 18.9603C9.97996 20.283 11.8073 21.1011 13.8256 21.1011C15.844 21.1011 17.6713 20.283 18.9939 18.9603C20.3166 17.6377 21.1347 15.8105 21.1347 13.7921C21.1347 13.362 21.0972 12.9403 21.0259 12.5306Z" fill="#FFE396"/>
<path fill-rule="evenodd" clip-rule="evenodd" d="M15.5175 13.8109C15.4739 13.8131 15.4195 13.8204 15.358 13.8301V13.8302L15.3109 13.8377C15.0888 13.8734 14.8252 13.9157 14.5714 13.8126C14.426 13.7536 14.3043 13.6533 14.1975 13.5276C14.1085 13.423 14.029 13.297 13.9533 13.1627C13.8773 13.0279 13.8051 12.8845 13.7484 12.7499C13.6932 12.6187 13.6507 12.4928 13.6299 12.385C13.5889 12.1732 13.6217 12.0398 13.6502 11.9243C13.6544 11.9075 13.6584 11.8913 13.6616 11.8744C13.6651 11.8559 13.6678 11.8329 13.6705 11.8082C13.6811 11.715 13.6935 11.6052 13.7564 11.4272C13.8033 11.294 13.8815 11.1189 13.9917 10.9513C14.0792 10.8181 14.1869 10.6902 14.3157 10.5904C14.5835 10.3831 14.8938 10.3213 15.2211 10.2561C15.3223 10.236 15.2136 10.2586 15.3116 10.2387C15.3644 10.228 15.4933 10.1997 15.6217 10.1716C15.8481 10.1221 16.0721 10.073 16.2877 10.0422C16.4532 10.0186 16.5986 10.0077 16.7264 9.99828H16.7276C16.8326 9.99046 16.9242 9.98362 16.9945 9.9711H16.9957C17.0197 9.96683 17.0384 9.96262 17.0523 9.95836C17.0465 9.93829 17.034 9.91422 17.0128 9.8859C16.9746 9.83504 16.9165 9.7798 16.8495 9.72889C16.7832 9.67863 16.7085 9.63406 16.6357 9.60354L16.6359 9.60311C16.5717 9.57631 16.5112 9.56291 16.4532 9.55684C16.3841 9.54957 16.3137 9.55093 16.244 9.5535C16.1774 9.55597 16.1021 9.56045 15.998 9.5686C15.8884 9.57713 15.7787 9.58725 15.6491 9.60048L15.6081 9.6048C15.2859 9.63783 14.843 9.68328 14.6194 9.60343C14.5432 9.57625 14.4826 9.53557 14.4356 9.48432V9.48312C14.3744 9.41629 14.3418 9.33962 14.3332 9.25622C14.3263 9.18825 14.3358 9.12197 14.3585 9.05847C14.3984 8.94664 14.4876 8.83261 14.5908 8.738C14.6677 8.66751 14.742 8.61452 14.8173 8.56076C14.9014 8.50072 14.9872 8.43952 15.0447 8.3745C15.0878 8.32577 15.1246 8.26616 15.1556 8.20283C15.1967 8.11872 15.2277 8.02663 15.2503 7.94197C15.2573 7.91572 15.2667 7.87564 15.2757 7.8367C15.3136 7.67444 15.3469 7.5316 15.4733 7.35868C15.5578 7.24307 15.6813 7.12385 15.845 7.02836C15.9481 6.96815 16.069 6.91647 16.2083 6.88021C15.4615 6.6228 14.66 6.48291 13.8257 6.48291C13.7596 6.48291 13.6938 6.48384 13.6282 6.48559C13.695 6.52163 13.7566 6.55805 13.8116 6.59611L13.8139 6.59732L13.8221 6.60311L13.8245 6.60547C14.0225 6.7482 14.108 6.93364 14.1051 7.14304C14.1027 7.31793 14.0327 7.49682 13.9137 7.66864L13.8965 7.69287C13.7788 7.856 13.6124 8.02034 13.4308 8.14585C13.2568 8.26605 13.0638 8.35475 12.8758 8.38161C12.5566 8.42722 12.311 8.30592 12.079 8.1914C12.0263 8.16537 11.9744 8.13972 11.9264 8.11932C11.8333 8.07979 11.7477 8.05611 11.6793 8.05332L11.636 8.05178C11.6322 8.05485 11.6262 8.07787 11.6192 8.11205C11.6046 8.18271 11.6029 8.27212 11.6077 8.36471C11.6087 8.38401 11.6131 8.43684 11.6175 8.48928C11.6367 8.71843 11.6552 8.94051 11.5248 9.16998C11.4348 9.3283 11.2988 9.43811 11.1469 9.56078C11.0646 9.62722 10.9762 9.69859 10.9003 9.77663C10.7792 9.90104 10.665 10.066 10.5574 10.2216C10.4863 10.3244 10.4177 10.4236 10.3547 10.5037C10.2329 10.6587 10.1146 10.7728 10.009 10.8745C9.95978 10.9218 9.9139 10.9661 9.87244 11.0115C9.82503 11.0634 9.78675 11.1141 9.7599 11.1648C9.73578 11.2103 9.71948 11.2578 9.71248 11.3089C9.70483 11.3642 9.70669 11.4271 9.71577 11.4941C9.7272 11.5785 9.74912 11.6661 9.77795 11.7525C9.80605 11.8368 9.84078 11.9205 9.88087 12.0025C9.92035 12.0832 9.96809 12.1659 10.0223 12.2488C10.0735 12.3269 10.1258 12.3978 10.1836 12.4603C10.2428 12.5244 10.3138 12.5875 10.403 12.6513C10.4632 12.6942 10.5329 12.7383 10.6053 12.784C10.7881 12.8995 10.9859 13.0245 11.1555 13.1989C11.2786 13.3255 11.3704 13.4603 11.4667 13.6015C11.5521 13.7266 11.6414 13.8576 11.751 13.9753C11.8642 14.0967 12.0063 14.2151 12.1408 14.327C12.2965 14.4566 12.4434 14.5789 12.5489 14.702C12.5806 14.7389 12.6084 14.7755 12.6328 14.8121C13.645 14.5948 14.612 14.2561 15.5176 13.811L15.5175 13.8109ZM8.74424 15.0308C8.72368 14.9304 8.71028 14.8304 8.70596 14.7349C8.69623 14.5208 8.72942 14.3474 8.76032 14.1859C8.77279 14.1208 8.78482 14.0579 8.79155 14.0006C8.8003 13.9261 8.80073 13.8558 8.78755 13.7874C8.77437 13.7191 8.74665 13.6468 8.69885 13.5664C8.64433 13.4747 8.56547 13.3745 8.47321 13.2769C8.37751 13.1756 8.26884 13.0789 8.15892 12.9985C8.00279 12.8842 7.83583 12.7982 7.68817 12.7221C7.61691 12.6853 7.54943 12.6506 7.49616 12.6206C7.37995 12.5552 7.27998 12.488 7.18439 12.3967C7.08896 12.3055 7.00441 12.1957 6.9214 12.0471C6.87896 11.9711 6.83669 11.8838 6.79458 11.7886C6.61351 12.4253 6.5166 13.0973 6.5166 13.7919C6.5166 14.0717 6.53235 14.3476 6.56298 14.6192C7.26686 14.8183 7.99595 14.9573 8.74424 15.0308Z" fill="#FFF5DA"/>
<path fill-rule="evenodd" clip-rule="evenodd" d="M15.5382 13.7922C15.5308 13.7858 15.5348 13.7898 15.5406 13.7955C15.5409 13.7949 15.5403 13.794 15.5382 13.7922Z" fill="#CCCCCC"/>
<path fill-rule="evenodd" clip-rule="evenodd" d="M17.6951 16.5448C17.6862 16.5683 17.6766 16.5936 17.6954 16.545L17.6951 16.5448Z" fill="#CCCCCC"/>
<path fill-rule="evenodd" clip-rule="evenodd" d="M7.09961 10.9261C7.15501 11.0774 7.20942 11.2243 7.25897 11.3485C7.32175 11.5058 7.38393 11.647 7.44474 11.7559C7.49588 11.8474 7.54477 11.912 7.59738 11.9623C7.64988 12.0124 7.71271 12.0538 7.78938 12.0969C7.84866 12.1303 7.90406 12.1588 7.96263 12.189C8.13003 12.2753 8.31925 12.3728 8.51323 12.5147C8.65197 12.6162 8.78896 12.7382 8.90971 12.8659C9.03128 12.9946 9.13792 13.1311 9.2152 13.261C9.30002 13.4037 9.35066 13.5395 9.37669 13.6746C9.40266 13.8096 9.4031 13.9383 9.38773 14.0687C9.3786 14.1462 9.36433 14.221 9.34945 14.2985C9.32468 14.428 9.29805 14.5671 9.3045 14.709C9.30926 14.8143 9.33102 14.931 9.36438 15.0466C9.39993 15.1697 9.44871 15.2903 9.50433 15.3936C9.57575 15.5262 9.6638 15.6362 9.74462 15.7371C9.79406 15.7989 9.84137 15.8579 9.88342 15.9177C9.95495 16.0194 10.0135 16.1232 10.0645 16.2613C10.1116 16.3886 10.1508 16.5421 10.1871 16.75C10.2381 17.0424 10.2855 17.4561 10.3286 17.8318C10.3408 17.9384 10.3526 18.0413 10.3683 18.1726C10.3937 18.3837 10.4168 18.5562 10.4433 18.6916C10.4663 18.8094 10.4894 18.8929 10.5158 18.9425C10.5254 18.9605 10.5327 18.9695 10.5385 18.9723C10.5522 18.9789 10.5804 18.9811 10.617 18.9811C10.6527 18.9811 10.6895 18.978 10.717 18.9625C10.7555 18.9408 10.7981 18.894 10.845 18.8026C10.9671 18.5649 11.0792 18.1056 11.1661 17.7496C11.1884 17.6585 11.1872 17.6622 11.1996 17.6118C11.2489 17.4128 11.2903 17.2605 11.3366 17.1359C11.3936 16.9826 11.4587 16.8732 11.5486 16.7882C11.6072 16.7328 11.6631 16.7001 11.7224 16.6654C11.7774 16.6332 11.8393 16.5969 11.889 16.5065C11.9352 16.4224 11.9807 16.2929 12.0218 16.1486C12.0781 15.951 12.123 15.736 12.1515 15.5647C12.174 15.4297 12.1858 15.3286 12.1752 15.2535C12.1677 15.2002 12.1432 15.1501 12.093 15.0915C12.017 15.0028 11.8911 14.8981 11.7577 14.787C11.6054 14.6602 11.4444 14.5262 11.3115 14.3836C11.1708 14.2326 11.0685 14.0826 10.9709 13.9394C10.8889 13.8191 10.8105 13.7042 10.7253 13.6166C10.605 13.4928 10.4389 13.3879 10.2855 13.291C10.2048 13.2399 10.127 13.1908 10.055 13.1394C9.93335 13.0525 9.8324 12.9618 9.74402 12.8662C9.65412 12.769 9.58281 12.6741 9.51937 12.5773C9.45719 12.4824 9.3978 12.3779 9.34267 12.2652C9.29138 12.1604 9.24631 12.0515 9.20923 11.9402C9.16855 11.8182 9.13754 11.694 9.12124 11.5737C9.10511 11.4547 9.10265 11.3375 9.11796 11.2264C9.13502 11.1026 9.17303 10.9903 9.22881 10.8851C9.28186 10.7851 9.34907 10.6941 9.4282 10.6074C9.47753 10.5534 9.53326 10.4997 9.59292 10.4422C9.68223 10.3562 9.78236 10.2598 9.88233 10.1325C9.94522 10.0524 10.0035 9.96815 10.0639 9.88092C10.1858 9.70466 10.3152 9.51769 10.4702 9.35849C10.572 9.25382 10.6749 9.1707 10.7708 9.09331C10.8757 9.00855 10.9697 8.9327 11.0031 8.87396C11.0408 8.80757 11.0298 8.67512 11.0184 8.53845C11.0153 8.50203 11.0122 8.46528 11.0086 8.39512C11.0014 8.25867 11.0057 8.11895 11.0318 7.99218C11.0654 7.82899 11.1348 7.68615 11.2576 7.58673C11.3793 7.48818 11.533 7.4476 11.7025 7.45444C11.8459 7.46024 12.0039 7.5007 12.1609 7.56742C12.2233 7.59395 12.2832 7.62348 12.344 7.65356C12.4949 7.72804 12.6546 7.8069 12.7909 7.78743C12.8823 7.77436 12.9876 7.72334 13.09 7.65263C13.2163 7.56529 13.3306 7.45296 13.4101 7.34288L13.4203 7.32806C13.474 7.25056 13.5054 7.1839 13.506 7.13588C13.5062 7.12298 13.4973 7.10865 13.4769 7.09339L13.4767 7.09377L13.4685 7.08798L13.4687 7.0877C13.3715 7.02093 13.2106 6.94486 13.0319 6.86042C12.8667 6.78238 12.6878 6.69778 12.5143 6.60022C11.0215 6.87059 9.68644 7.59427 8.65711 8.62355C8.00102 9.27963 7.46919 10.0599 7.09972 10.9261L7.09961 10.9261Z" fill="#FFE396"/>
<path fill-rule="evenodd" clip-rule="evenodd" d="M7.09961 10.9262C7.15501 11.0775 7.20942 11.2244 7.25897 11.3485C7.32175 11.5059 7.38393 11.6471 7.44474 11.7559C7.49588 11.8475 7.54477 11.9121 7.59738 11.9623C7.64988 12.0125 7.71271 12.0538 7.78938 12.097C7.84866 12.1303 7.90406 12.1589 7.96263 12.1891C8.13003 12.2753 8.31925 12.3729 8.51323 12.5148C8.65197 12.6163 8.78896 12.7382 8.90971 12.866C9.03128 12.9947 9.13792 13.1312 9.2152 13.2611C9.30002 13.4037 9.35066 13.5395 9.37669 13.6746C9.40266 13.8097 9.4031 13.9384 9.38773 14.0687C9.3786 14.1463 9.36433 14.2211 9.34945 14.2986C9.32468 14.428 9.29805 14.5671 9.3045 14.709C9.30926 14.8143 9.33102 14.9311 9.36438 15.0466C9.36728 15.0568 9.37029 15.0668 9.37341 15.0769C9.57679 15.0867 9.78138 15.092 9.98722 15.092C10.6511 15.092 11.3029 15.04 11.939 14.9407C11.8833 14.8916 11.8213 14.84 11.7576 14.787C11.6053 14.6602 11.4444 14.5262 11.3114 14.3836C11.1708 14.2326 11.0684 14.0826 10.9708 13.9394C10.8888 13.8191 10.8105 13.7042 10.7253 13.6166C10.6049 13.4928 10.4388 13.3879 10.2854 13.291C10.2047 13.2399 10.1269 13.1908 10.055 13.1394C9.9333 13.0525 9.83234 12.9618 9.74397 12.8662C9.65406 12.769 9.58275 12.6741 9.51931 12.5773C9.45713 12.4824 9.39774 12.3779 9.34262 12.2652C9.29132 12.1604 9.24626 12.0515 9.20918 11.9402C9.16849 11.8182 9.13748 11.694 9.12119 11.5737C9.10505 11.4547 9.10259 11.3375 9.11791 11.2264C9.13497 11.1026 9.17298 10.9903 9.22876 10.8851C9.2818 10.7851 9.34902 10.6941 9.42815 10.6074C9.47748 10.5534 9.5332 10.4997 9.59287 10.4422C9.68217 10.3562 9.78231 10.2598 9.88227 10.1325C9.94516 10.0524 10.0035 9.96815 10.0638 9.88092C10.1858 9.70467 10.3152 9.51769 10.4701 9.35849C10.5719 9.25382 10.6749 9.1707 10.7707 9.09331C10.8757 9.00855 10.9697 8.9327 11.003 8.87396C11.0408 8.80757 11.0297 8.67512 11.0183 8.53845C11.0153 8.50203 11.0122 8.46528 11.0085 8.39512C11.0013 8.25867 11.0056 8.11895 11.0318 7.99218C11.0654 7.82899 11.1348 7.68615 11.2576 7.58673C11.3793 7.48818 11.5329 7.4476 11.7024 7.45444C11.8459 7.46024 12.0039 7.5007 12.1608 7.56742C12.2232 7.59395 12.2831 7.62348 12.344 7.65356C12.4948 7.72804 12.6545 7.8069 12.7909 7.78743C12.8823 7.77436 12.9875 7.72334 13.0899 7.65263C13.2162 7.56529 13.3306 7.45296 13.41 7.34288L13.4203 7.32806C13.4739 7.25056 13.5053 7.1839 13.506 7.13588C13.5061 7.12298 13.4972 7.10865 13.4769 7.09339L13.4766 7.09377L13.4684 7.08798L13.4686 7.0877C13.3714 7.02093 13.2106 6.94486 13.0318 6.86042C12.8667 6.78238 12.6877 6.69778 12.5142 6.60022C11.0214 6.87059 9.68638 7.59427 8.65705 8.62355C8.00097 9.27963 7.46913 10.0599 7.09966 10.9261L7.09961 10.9262Z" fill="#FFE396"/>
<path fill-rule="evenodd" clip-rule="evenodd" d="M26.731 20.2231C26.9217 20.6074 27.0346 21.0834 27.0637 21.5004C27.0886 21.8581 27.0475 22.1885 26.938 22.4132C27.1014 22.8584 27.1503 23.2073 27.1133 23.5309C27.0721 23.8905 26.9291 24.195 26.7217 24.5516C26.6387 24.6949 26.4552 24.7438 26.3119 24.6609C26.2634 24.6328 26.2258 24.5932 26.2004 24.5475C25.7904 23.9058 25.3816 23.3316 24.9753 22.8349C24.5485 23.2995 24.122 23.6839 23.6969 23.9796C23.0985 24.3958 22.499 24.6407 21.901 24.6918C21.2933 24.7438 20.6956 24.595 20.1117 24.2226C19.5932 23.8919 19.0894 23.3857 18.6035 22.6872L18.6043 22.6867C18.5375 22.5905 18.5309 22.4598 18.5977 22.355C19.8593 20.3813 21.2249 19.7914 22.6461 20.2533C23.4192 20.5046 24.1972 21.0806 24.9735 21.9225C25.3842 21.4213 25.7968 20.8425 26.2098 20.1949C26.2986 20.0555 26.4836 20.0145 26.623 20.1033C26.6709 20.1338 26.7073 20.1758 26.7307 20.2233L26.7311 20.2231H26.731Z" fill="black"/>
<path fill-rule="evenodd" clip-rule="evenodd" d="M26.4122 21.5185C26.4006 21.3516 26.3732 21.1741 26.3306 21C25.9943 21.498 25.6573 21.9517 25.3203 22.3573C25.673 22.7808 26.0251 23.2574 26.3761 23.7813C26.4207 23.6672 26.451 23.5557 26.4642 23.441C26.4937 23.1826 26.4403 22.8842 26.2724 22.4683C26.2289 22.3595 26.2517 22.2304 26.3405 22.1431C26.4117 22.0733 26.4337 21.8268 26.4122 21.5185Z" fill="#FFE396"/>
<path fill-rule="evenodd" clip-rule="evenodd" d="M24.5813 22.3775C23.862 21.5855 23.1523 21.0489 22.4601 20.8239C21.3568 20.4653 20.2656 20.9419 19.2129 22.5077C19.616 23.057 20.0232 23.4564 20.4329 23.7177C20.899 24.0149 21.3726 24.1339 21.8512 24.093C22.3395 24.0512 22.8415 23.8427 23.3536 23.4865C23.7596 23.2041 24.1693 22.8314 24.5812 22.3775H24.5813ZM20.509 21.9227C20.675 21.9227 20.8096 22.0573 20.8096 22.2233C20.8096 22.3892 20.675 22.5238 20.509 22.5238H20.5043C20.3383 22.5238 20.2037 22.3892 20.2037 22.2233C20.2037 22.0573 20.3383 21.9227 20.5043 21.9227H20.509Z" fill="#FFE396"/>
<path fill-rule="evenodd" clip-rule="evenodd" d="M23.8255 6.83668C24.552 7.32542 25.0783 7.39318 25.4105 7.24312C25.5652 7.17323 25.6786 7.05122 25.7489 6.90356C25.8241 6.74584 25.8512 6.5592 25.8288 6.37222C25.7847 6.00357 25.5454 5.64083 25.0988 5.50225C24.9405 5.45363 24.8517 5.28591 24.9004 5.1277C24.915 5.08023 24.9403 5.03899 24.9729 5.00585C25.6911 4.26325 25.956 3.45573 25.8839 2.9128C25.8582 2.71904 25.7891 2.571 25.6839 2.49148C25.5883 2.41919 25.4472 2.40027 25.2648 2.4538C24.7123 2.61601 23.9263 3.33591 22.998 4.94602L23.8255 6.83668H23.8255Z" fill="#FFE396"/>
<path fill-rule="evenodd" clip-rule="evenodd" d="M22.4494 5.18763C20.6352 4.77671 19.5732 4.86509 19.0799 5.16045C18.9167 5.25818 18.8347 5.37467 18.823 5.49372C18.81 5.62508 18.8721 5.77656 18.9973 5.92739C19.3446 6.34559 20.1094 6.69663 21.1324 6.67836C21.1851 6.67311 21.2398 6.68175 21.291 6.70614C21.4408 6.77745 21.5044 6.95672 21.4331 7.10651C21.2314 7.52979 21.3349 7.95187 21.5754 8.23395C21.6978 8.3775 21.8531 8.48425 22.0193 8.53588C22.1761 8.5846 22.3435 8.58406 22.5005 8.51756C22.8355 8.37564 23.1423 7.94285 23.2761 7.07649L22.4494 5.18769L22.4494 5.18763Z" fill="#FFE396"/>
<path fill-rule="evenodd" clip-rule="evenodd" d="M22.2699 5.14809C20.5648 4.78289 19.5567 4.87493 19.0799 5.1604C18.9167 5.25812 18.8347 5.37461 18.823 5.49366C18.81 5.62502 18.8721 5.77651 18.9973 5.92734C19.3446 6.34553 20.1094 6.69657 21.1324 6.6783C21.1851 6.67305 21.2398 6.68169 21.291 6.70609C21.4408 6.7774 21.5044 6.95666 21.4331 7.10645C21.3102 7.36441 21.3006 7.62194 21.3663 7.84758C21.7647 6.99544 22.0703 6.09145 22.2699 5.14809H22.2699Z" fill="#FFE396"/>
</svg>
