<svg width="40" height="38" viewBox="0 0 40 38" fill="none" xmlns="http://www.w3.org/2000/svg">
<path d="M18.1813 0.0221877C16.3397 0.167646 14.4339 0.57197 12.7821 1.16613C12.2249 1.36829 11.9636 1.46937 11.6061 1.62469C11.219 1.7948 10.0998 2.34459 9.76446 2.53442C9.48587 2.68974 8.88678 3.06202 8.80049 3.13105C8.77337 3.15323 8.57368 3.30362 8.35672 3.46634C8.13977 3.62906 7.90309 3.81396 7.83159 3.87806L7.70093 3.99393L7.80694 4.10981C7.99184 4.31197 8.25071 4.63494 8.44301 4.90366L8.63038 5.16253L8.96321 4.85436C10.5608 3.36033 12.3679 2.20899 14.6065 1.25242C15.8515 0.719893 17.3677 0.295846 18.8346 0.0714955L19.3031 -9.53674e-07H18.8716C18.6349 0.00246429 18.3243 0.00986052 18.1813 0.0221877Z" fill="#11D452"/>
<path d="M20.5727 0.406868C20.5259 0.409332 20.2695 0.43152 20.0057 0.451244C19.0713 0.525206 18.3292 0.648476 17.3801 0.885153C15.6592 1.31413 14.1676 1.94034 12.6218 2.87965C11.5642 3.52312 10.3833 4.42792 9.57216 5.21931L9.38232 5.40421L9.53764 5.46832C9.85814 5.60391 10.0258 5.7617 10.1688 6.06494L10.2575 6.25478L10.7777 5.86771C11.5568 5.29081 11.9118 5.03934 12.3581 4.76075C12.5799 4.62022 12.7648 4.50681 12.7722 4.50681C12.7772 4.50681 12.8733 4.45011 12.9867 4.37861C13.5045 4.05318 14.5818 3.496 15.1982 3.23467C15.568 3.07935 16.3397 2.78597 16.85 2.61093C18.1443 2.16223 19.9095 1.83679 21.5589 1.74311C22.0249 1.71599 23.6915 1.72585 23.8887 1.75544C23.9306 1.76283 24.1229 1.78009 24.3201 1.79488C25.3704 1.87131 26.5538 2.10306 27.7446 2.46547C28.3535 2.64791 29.1227 2.94129 29.8303 3.26179C30.3061 3.47381 30.7277 3.6957 31.3514 4.05318C31.9875 4.41806 33.0032 5.09111 33.1684 5.25629C33.2375 5.32532 33.2498 5.34998 33.2251 5.37463C33.1881 5.41161 33.0871 5.3623 32.7518 5.14535C32.0417 4.68432 31.6645 4.46983 30.8657 4.07537C30.1804 3.73761 29.3224 3.38013 28.6099 3.13605C27.9245 2.90184 26.5341 2.57641 25.6317 2.43588C25.3285 2.38904 24.6801 2.31015 24.6751 2.32001C24.6727 2.32248 24.6332 2.45068 24.5839 2.60106C24.4434 3.04237 24.1278 3.63653 23.9183 3.85842C23.8764 3.90279 23.8468 3.94224 23.8542 3.94717C23.8591 3.9521 24.0539 3.99155 24.2832 4.03592C25.3556 4.24795 26.7806 4.67693 27.858 5.1133C28.5532 5.39435 29.0956 5.63596 29.5566 5.86771C30.0719 6.12658 30.3751 6.29422 30.8904 6.61226C31.0802 6.7306 31.3169 6.87359 31.4131 6.93029C31.5117 6.987 31.593 7.04123 31.593 7.04863C31.593 7.07575 31.0235 7.5639 30.9915 7.5639C30.9742 7.5639 30.8633 7.49733 30.74 7.41351C30.5181 7.26066 29.956 6.9229 29.6824 6.7799C29.5098 6.68868 29.5172 6.69361 30.03 7.07575C30.2247 7.22121 30.4885 7.42337 30.6192 7.52692L30.8559 7.71675L30.6365 7.94357C30.1878 8.39967 29.4334 9.33405 29.0266 9.93067C28.8762 10.155 28.5902 10.6333 28.5507 10.7344C28.4324 11.0179 28.536 11.1486 28.8195 11.0746C29.1104 11.0007 29.3175 10.8478 30.1261 10.1156C30.565 9.71865 30.92 9.33898 31.2849 8.88288C31.3933 8.74729 31.487 8.63141 31.4944 8.62402C31.5043 8.61662 31.5413 8.56978 31.5782 8.51801C31.6177 8.4687 31.6621 8.42679 31.6769 8.42679C31.6941 8.42679 31.9727 8.69551 32.2981 9.02341C32.843 9.57566 33.2153 9.98738 33.5407 10.3991C33.6097 10.4879 33.733 10.6358 33.8094 10.7319C34.3888 11.4321 35.1309 12.581 35.6831 13.6362C35.8828 14.0183 35.9371 14.1342 36.2206 14.8121C36.7728 16.1287 37.0489 16.994 37.3103 18.2267C37.4977 19.1192 37.5839 19.7207 37.6604 20.6798C37.7146 21.3824 37.6678 22.4894 37.547 23.3917C37.4138 24.3853 37.4311 24.2891 37.2462 25.0435C37.0465 25.8571 36.7925 26.6238 36.4449 27.4719C36.0874 28.3422 35.3232 29.7426 34.7759 30.529C34.4332 31.0196 34.3 31.207 34.2877 31.207C34.2705 31.207 34.4307 30.9457 34.6329 30.64C34.7413 30.4772 34.978 30.0828 35.1876 29.7154C35.407 29.3284 35.5105 29.1164 35.8261 28.4088C35.9469 28.1376 36.2255 27.3709 36.3488 26.9665C36.3932 26.8235 36.4499 26.6411 36.477 26.5597C36.5016 26.4784 36.5337 26.3674 36.546 26.3132C36.5608 26.259 36.6002 26.1086 36.6348 25.9804C36.8493 25.1791 37.0169 24.2669 37.1007 23.4287C37.1895 22.5584 37.2092 21.5106 37.155 20.7044C37.1328 20.3716 37.1081 20.0659 37.1032 20.0265C37.0983 19.9845 37.0761 19.8021 37.0539 19.6197C37.0095 19.2499 36.9232 18.7198 36.832 18.2884C36.7728 17.9999 36.7704 18.032 36.8221 18.5349C36.8394 18.6951 36.8542 19.1956 36.8542 19.6813C36.8566 21.0151 36.7704 21.9347 36.5238 23.1772C36.4006 23.8108 36.2156 24.5652 36.0653 25.0632C35.6831 26.3231 35.3528 27.1662 34.8523 28.1499C34.411 29.0177 34.0979 29.57 33.8341 29.9447C33.7798 30.0212 33.6788 30.174 33.6097 30.2825C33.4667 30.5093 33.0723 31.0566 32.9687 31.1774C32.9317 31.2218 32.8997 31.2736 32.8997 31.2908C32.8997 31.3377 33.0378 31.456 33.2942 31.6237C33.4125 31.7025 33.6122 31.8529 33.7379 31.9565C33.8612 32.06 33.9771 32.1439 33.9919 32.1439C34.0362 32.1439 34.9484 31.2119 35.3035 30.8002C35.4785 30.5956 35.6437 30.4082 35.6683 30.3811C35.7152 30.3318 35.8754 30.1321 36.1146 29.8338C36.1861 29.7401 36.3192 29.5626 36.4104 29.4393C36.4992 29.3136 36.6422 29.1139 36.7284 28.9955C36.8147 28.8747 36.9824 28.6233 37.1032 28.4334C37.2215 28.2436 37.367 28.0168 37.4237 27.928C37.6998 27.4991 38.1584 26.6214 38.4813 25.899C38.5701 25.6993 38.6441 25.5292 38.6441 25.5218C38.6441 25.5144 38.6613 25.4725 38.681 25.4306C38.7377 25.3049 38.9498 24.7107 39.0361 24.4296C39.2333 23.7911 39.3072 23.5125 39.4059 22.9972C39.6549 21.7152 39.7017 20.6896 39.5661 19.4717C39.4576 18.488 39.1248 17.2085 38.7303 16.2618C38.506 15.7243 38.1534 14.9897 38.0178 14.7752C37.9735 14.7061 37.897 14.5804 37.8477 14.4916C37.759 14.3363 37.579 14.0429 37.3768 13.7224C36.869 12.9163 36.3118 12.2136 35.3996 11.2373C34.6427 10.4238 33.6812 9.52142 33.6048 9.551C33.5826 9.5584 33.5653 9.55347 33.5653 9.53621C33.5653 9.52142 33.5777 9.51649 33.5925 9.52389C33.6073 9.53621 33.6073 9.52389 33.59 9.49677C33.5308 9.40555 32.557 8.63634 32.1428 8.35529C32.0171 8.27147 31.9037 8.18764 31.8889 8.16792C31.8692 8.14573 31.8938 8.09149 31.9826 7.9559C32.0491 7.85481 32.133 7.72168 32.1699 7.65512C32.2069 7.59102 32.2439 7.53925 32.2562 7.53925C32.3277 7.53925 33.3287 8.27147 33.7872 8.65853C34.4258 9.19845 35.4243 10.155 35.8853 10.6703C36.0135 10.8108 36.1368 10.9513 36.1639 10.9785C36.228 11.05 36.7901 11.723 36.8961 11.8537C37.1796 12.2136 37.7072 12.9804 37.971 13.4143C38.506 14.2969 38.9226 15.1302 39.2727 16.0177C39.5686 16.7697 39.6376 16.9891 39.9039 18.0048L40 18.3746L39.9877 18.1281C39.8965 16.4467 39.4379 14.3807 38.7846 12.7166C38.3778 11.6786 37.7393 10.4484 37.1032 9.47704C37.0218 9.35377 36.9281 9.21325 36.8936 9.1664C36.7383 8.95191 36.3611 8.45391 36.297 8.37748C36.2576 8.33064 36.1022 8.13587 35.9543 7.94603C35.3749 7.21135 34.7759 6.62212 34.0313 6.05261C33.8859 5.94167 33.8119 5.87017 33.8119 5.83813C33.8119 5.72718 33.913 5.79868 34.3641 6.23012L34.5589 6.41749L34.3419 6.17835C34.2236 6.04522 34.0757 5.89483 34.0165 5.84306L33.9056 5.74937L34.088 5.60391C34.5318 5.2489 35.1013 4.71144 35.0766 4.672C35.0692 4.6572 35.0717 4.65474 35.0865 4.66213C35.1136 4.67939 35.2763 4.51667 35.4267 4.32191C35.481 4.25288 35.5303 4.19371 35.5377 4.18631C35.6215 4.11482 36.5534 2.7835 36.6915 2.5345C36.7876 2.36439 36.8936 2.08333 36.8936 2.00198C36.8936 1.92555 36.7901 1.81954 36.7161 1.81954C36.5855 1.81954 36.1984 2.06361 35.868 2.35206C35.7867 2.42109 35.5672 2.61093 35.3774 2.77364C34.9756 3.1188 34.517 3.58229 34.2532 3.91512C33.9475 4.29972 33.6344 4.7287 33.4914 4.95551C33.3681 5.15275 33.3139 5.20698 33.2892 5.15275C33.2547 5.07139 32.165 4.17152 31.6276 3.77706C30.8731 3.22728 30.5748 3.03004 29.8697 2.62079C27.6829 1.35604 25.2767 0.623821 22.6683 0.42659C22.2393 0.394541 20.8365 0.379747 20.5727 0.406868ZM32.8874 5.98851C33.092 6.04029 33.2448 6.28683 33.2079 6.50131C33.1881 6.61965 33.1019 6.77004 33.0156 6.83414C32.9589 6.87605 32.9096 6.88592 32.7518 6.88592C32.5743 6.88592 32.5521 6.88099 32.4633 6.80949C32.3351 6.70594 32.2833 6.595 32.2833 6.42242C32.2833 6.26464 32.3179 6.17835 32.4239 6.0822C32.5447 5.96879 32.6901 5.93921 32.8874 5.98851Z" fill="#11D452"/>
<path d="M4.6586 2.23855C4.55259 2.35689 4.70544 2.70944 5.10977 3.27402C5.92335 4.4081 6.62845 5.14772 7.47654 5.75174C7.85128 6.02047 8.05591 6.15606 8.12741 6.18565C8.18904 6.2103 8.1989 6.22756 8.18904 6.27933C8.12001 6.6664 8.11508 6.7231 8.15946 6.8513C8.24575 7.11756 8.47749 7.38136 8.70924 7.47998C8.83991 7.53422 9.13082 7.55147 9.31079 7.51449C9.42913 7.4923 9.46611 7.4923 9.47351 7.51449C9.48584 7.54654 9.57213 7.67721 9.88523 8.12838C10.3758 8.83348 11.2585 9.70129 12.2643 10.4656C12.6317 10.7442 12.8117 10.8625 13.0187 10.9562C13.2258 11.0523 13.3516 11.0622 13.4231 10.9907C13.5513 10.8625 13.4305 10.611 12.8388 9.78019C12.3605 9.10714 11.6973 8.36259 11.2289 7.97059C11.039 7.81281 10.5238 7.44546 10.1934 7.23344C9.92468 7.06086 9.89509 7.03128 9.92468 6.94992C10.0406 6.64668 9.95919 6.23495 9.73484 5.98595C9.50063 5.72708 9.17273 5.6334 8.78813 5.71722C8.63035 5.75174 8.61802 5.74188 8.42079 5.42138C7.89073 4.56342 7.1659 3.83366 5.78282 2.76861C5.32919 2.42099 5.23304 2.35443 5.05306 2.26321C4.87556 2.17446 4.72517 2.16459 4.6586 2.23855ZM9.24916 6.20044C9.42913 6.28426 9.54254 6.58257 9.46611 6.76994C9.44393 6.81925 9.40941 6.88089 9.38476 6.90554C9.27135 7.03374 9.01002 7.08551 8.86702 7.01155C8.54652 6.84391 8.53173 6.35329 8.84484 6.19797C8.94838 6.14867 9.14068 6.14867 9.24916 6.20044Z" fill="#11D452"/>
<path d="M22.4463 2.22128C22.4389 2.22621 22.1948 2.23853 21.9039 2.24593C21.613 2.25579 21.2753 2.27305 21.152 2.28784C20.7699 2.32975 20.0376 2.4333 19.5618 2.51219C19.118 2.58369 18.9282 2.62314 18.2231 2.78092C16.4998 3.16552 14.737 3.86323 12.9891 4.85185C12.2864 5.25124 12.2199 5.29562 12.5502 5.14523C13.0704 4.90855 14.737 4.33905 15.383 4.17633C15.9204 4.04074 17.0767 3.83118 17.7004 3.75722C18.6102 3.64627 20.0549 3.5871 20.6096 3.63888C20.9005 3.66353 20.9868 3.64874 21.5366 3.48356C22.1135 3.31098 22.3699 3.21236 22.8285 2.98801C23.2278 2.79571 23.5755 2.58122 23.8467 2.36673L23.9699 2.27058L23.8195 2.25333C23.6272 2.2336 22.4636 2.20648 22.4463 2.22128Z" fill="#11D452"/>
<path d="M24.0982 2.6035C23.9724 2.72677 23.679 2.9314 23.3437 3.1237C22.7249 3.47625 21.6722 3.86085 20.6466 4.10246C20.4494 4.1493 20.1732 4.21587 20.0303 4.25038C19.8873 4.28243 19.4805 4.37858 19.123 4.45747C16.5713 5.03684 15.7306 5.35241 14.9639 6.01807C14.1306 6.74043 13.7164 7.6255 13.5709 8.99872C13.5438 9.25759 13.5413 9.83203 13.5685 10.0613L13.5833 10.2018L13.7657 9.86408C14.138 9.16884 14.5004 8.70781 14.9491 8.35279C15.526 7.89916 16.0684 7.74384 17.5895 7.60085C18.5116 7.51456 19.3326 7.36664 19.8651 7.18913C20.2201 7.07079 20.7058 6.83658 20.977 6.64921C21.1964 6.49635 21.6007 6.15859 21.8127 5.94904C21.9582 5.80604 22.2664 5.41898 22.2343 5.41898C22.2269 5.41898 22.1875 5.44116 22.148 5.47075C22.0174 5.56443 21.5267 5.78139 21.2136 5.88247C20.7033 6.05012 20.3236 6.12408 18.588 6.39527C17.6955 6.5358 17.237 6.61716 16.9362 6.69112C16.84 6.71331 17.0077 6.63195 17.2715 6.5284C17.8952 6.27693 18.0974 6.21283 19.4262 5.85042C20.8044 5.47322 21.3468 5.29078 21.9163 5.00726C22.9 4.51911 23.5632 3.9003 23.9749 3.07685C24.1154 2.7958 24.2264 2.53693 24.2165 2.51228C24.2116 2.50242 24.1598 2.54186 24.0982 2.6035Z" fill="#11D452"/>
<path d="M5.99746 5.52255C4.93981 6.65416 4.16075 7.79317 3.49756 9.17872C2.83683 10.5618 2.36101 12.2432 2.14406 13.9616C1.90984 15.8279 2.04298 17.8643 2.52619 19.8169C2.69384 20.4924 2.98476 21.4712 2.99215 21.3873C2.99462 21.3775 2.97243 21.2715 2.94531 21.1482C2.85409 20.7439 2.72835 19.7429 2.6963 19.2005C2.66425 18.6384 2.67658 17.6178 2.72342 17.0433C2.86395 15.2608 3.40634 13.1628 4.17061 11.4222C4.66369 10.3029 5.10253 9.50415 5.80516 8.45143C6.21442 7.84001 6.9491 6.8933 7.38055 6.42241C7.4767 6.31887 7.55559 6.22272 7.55559 6.21039C7.55559 6.20053 7.49642 6.16108 7.42739 6.12164C7.23756 6.02302 6.91459 5.76909 6.49054 5.38695C6.38946 5.29573 6.30071 5.22177 6.29331 5.22177C6.28591 5.22177 6.15278 5.35736 5.99746 5.52255Z" fill="#11D452"/>
<path d="M14.8531 5.55462C14.7643 5.58667 14.577 5.65324 14.434 5.70255C13.507 6.02798 12.1905 6.68131 11.224 7.29766L11.0317 7.42092L11.2339 7.56885C11.3424 7.65021 11.5273 7.80799 11.6456 7.91647C11.7615 8.02741 11.8823 8.14082 11.9119 8.16547C11.9661 8.21232 11.9711 8.20985 12.755 7.82032L13.544 7.42832L13.5957 7.30012C13.682 7.09303 13.9631 6.60488 14.111 6.40518C14.2762 6.18083 14.7422 5.71734 14.9221 5.59653C15.1095 5.4708 15.0972 5.46587 14.8531 5.55462Z" fill="#11D452"/>
<path d="M4.7301 6.53334C3.71929 7.56141 2.81449 8.82862 2.0798 10.2388C1.28841 11.7624 0.736166 13.5375 0.506885 15.2929C0.366358 16.3727 0.383615 17.9333 0.551262 19.1142C0.783009 20.7463 1.30567 22.3858 2.09953 23.9686C2.36086 24.4888 2.9279 25.4675 3.23607 25.931C3.90419 26.9345 4.9791 28.2904 5.71626 29.0621C6.07127 29.4344 6.75172 30.1049 6.88485 30.2134L6.9884 30.3022L7.09934 30.1912C7.23987 30.0482 7.53572 29.8979 7.7009 29.8806C7.76993 29.8757 7.82663 29.8633 7.82663 29.8584C7.82663 29.851 7.73048 29.7351 7.61214 29.602C7.49134 29.4664 7.31383 29.2667 7.21521 29.1533C6.50272 28.3496 5.82966 27.5286 5.47958 27.0405C5.20592 26.6534 4.5945 25.7042 4.37015 25.3147C3.91406 24.5208 3.47522 23.6555 3.09555 22.7901C2.67643 21.8434 2.21047 20.4357 2.0231 19.558C1.84806 18.7272 1.80122 18.5003 1.74944 18.1897C1.40429 16.1188 1.53742 13.8679 2.12172 11.8167C2.39044 10.8823 2.80956 9.80984 3.22128 9.01845C3.78092 7.94108 4.29126 7.14969 4.90021 6.4224C5.03334 6.26461 5.13689 6.13395 5.13196 6.13395C5.12703 6.13395 4.94705 6.31392 4.7301 6.53334Z" fill="#11D452"/>
<path d="M7.52585 7.35925C6.79609 8.232 6.0121 9.3932 5.48943 10.3769C4.65367 11.9473 4.0817 13.5449 3.72421 15.2929C3.63053 15.749 3.41357 17.4723 3.41357 17.7435C3.41357 17.8717 3.43823 17.7657 3.48754 17.4353C3.68723 16.0793 4.04718 14.8245 4.62162 13.4808C4.85583 12.936 5.30453 12.0361 5.57079 11.5825C6.16249 10.5741 7.20288 9.1516 7.85128 8.46375C8.24081 8.05203 8.49228 7.77344 8.49228 7.75618C8.49228 7.74632 8.43311 7.69948 8.36161 7.6551C8.18904 7.54416 8.01646 7.34693 7.92524 7.15463C7.88579 7.06834 7.84635 6.99684 7.84142 6.99684C7.83649 6.99684 7.69349 7.15956 7.52585 7.35925Z" fill="#11D452"/>
<path d="M18.768 7.92132C18.7434 7.94844 18.3982 8.03226 18.1763 8.06924C17.8583 8.11855 17.3972 8.15306 16.7883 8.16786C16.5048 8.17525 16.1991 8.19251 16.1103 8.2073C15.9303 8.23442 15.6345 8.33057 15.4693 8.4144C14.9787 8.6634 14.4215 9.25756 14.1158 9.85665C13.9827 10.1155 13.7953 10.6332 13.8249 10.6604C13.8323 10.6678 13.8619 10.6357 13.8939 10.5913C14.0616 10.3497 14.4634 9.98731 14.8875 9.69886C15.2524 9.44986 15.8638 9.19346 16.6823 8.94692C17.1926 8.79407 17.7128 8.60176 17.9963 8.45877C18.3366 8.28866 18.8962 7.90899 18.805 7.90899C18.7927 7.90899 18.7754 7.91392 18.768 7.92132Z" fill="#11D452"/>
<path d="M9.49077 8.57966C8.04605 9.86166 7.01305 11.188 6.17975 12.8275C5.98498 13.2097 5.74337 13.7718 5.7631 13.7915C5.76803 13.7989 5.80994 13.7446 5.85432 13.6732C6.05894 13.3379 6.732 12.4774 7.20042 11.9523C7.63926 11.4568 8.48982 10.6407 9.02234 10.2043C9.32805 9.95288 9.98631 9.4524 10.1737 9.32667C10.2575 9.27243 10.3093 9.22312 10.2994 9.20586C10.2896 9.19107 10.1934 9.0752 10.0874 8.947C9.97892 8.8188 9.84825 8.64869 9.79648 8.56733C9.74224 8.4835 9.6954 8.41447 9.69293 8.41201C9.69047 8.40954 9.59925 8.4835 9.49077 8.57966Z" fill="#11D452"/>
<path d="M33.4667 10.6974C33.2029 10.8207 32.4238 11.1313 31.9504 11.3039C31.2626 11.5504 30.3282 11.7624 29.3988 11.8783C28.6542 11.9745 28.0329 11.9227 27.6976 11.7403C27.4018 11.58 27.2933 11.4124 27.2489 11.0426L27.2218 10.8157L27.0739 11.082C26.9383 11.3285 26.5537 11.9868 26.2184 12.544C26.0656 12.7954 25.925 13.0395 25.5577 13.6781C25.4295 13.9024 25.3013 14.1218 25.2742 14.1687L25.2249 14.2525L25.3457 14.2352C25.5947 14.1983 26.9802 13.9443 27.2391 13.8876C27.8456 13.7496 28.8736 13.4414 29.3741 13.2441C29.739 13.1012 30.5969 12.7092 30.6561 12.6574C30.6758 12.6377 30.7424 12.5982 30.7991 12.5686C30.8583 12.539 30.9026 12.5119 30.8977 12.507C30.8928 12.5021 30.7892 12.5292 30.6684 12.5711C30.1852 12.7313 29.3149 12.9409 28.8391 13.0124C28.351 13.0839 27.6755 13.1233 27.2736 13.1012C27.0862 13.0888 26.9334 13.074 26.9334 13.0642C26.9334 13.0543 27.0813 13.0321 27.2613 13.0149C28.3189 12.9187 29.7464 12.581 30.735 12.1988C31.6694 11.8339 32.3794 11.4888 32.8996 11.1461C32.9613 11.1067 33.1511 10.9809 33.3261 10.8675C33.4987 10.7541 33.6392 10.653 33.6392 10.6407C33.6392 10.616 33.654 10.6111 33.4667 10.6974Z" fill="#11D452"/>
<path d="M19.2858 15.071C19.2808 15.0735 19.1798 15.0833 19.0565 15.0932C18.1985 15.1524 17.2814 15.4951 16.5738 16.0251C16.2731 16.2519 15.7529 16.782 15.5754 17.0433C15.42 17.2751 15.2031 17.6917 15.0921 17.9703C15.0009 18.1971 14.8629 18.7223 14.816 19.0156C14.7174 19.6098 14.7963 20.485 14.9985 21.0792C15.1513 21.5254 15.3954 21.9988 15.669 22.3735C15.8096 22.5683 16.3273 23.0786 16.5541 23.2463C17.4367 23.9045 18.699 24.2743 19.8627 24.2225C20.7453 24.1806 21.8227 23.8577 22.5204 23.4188C22.6412 23.3449 23.0381 23.0466 23.1367 22.9578L23.2353 22.869V20.9855V19.1019H22.7422H22.2467L22.2541 19.3016L22.2615 19.4989L22.5697 19.5038L22.8778 19.5087V19.6443V19.7799L22.5771 19.7701C22.3305 19.7627 22.2738 19.7676 22.2738 19.7972C22.2738 19.9007 22.2147 20.2755 22.1727 20.4456C22.0421 20.9584 21.5884 21.6462 21.1767 21.9544C20.8242 22.2182 20.3311 22.4203 19.8947 22.4795L19.6728 22.5091V22.7976V23.0835H19.5372H19.4016L19.3942 22.7951C19.3869 22.5165 19.3844 22.5042 19.3326 22.4943C19.303 22.4894 19.2019 22.4721 19.1058 22.4549C18.8913 22.4203 18.5437 22.3045 18.3169 22.1886C17.4491 21.7547 16.8672 20.9165 16.7612 19.9476L16.744 19.7947L16.421 19.7873L16.098 19.7799L16.0906 19.6739C16.0783 19.5087 16.0906 19.5013 16.4432 19.5161L16.7513 19.526V19.4274C16.7513 19.0058 17.0053 18.3179 17.3184 17.8988C17.4786 17.6843 17.7769 17.4082 18.021 17.248C18.3686 17.0187 18.8519 16.8338 19.1995 16.7968L19.3647 16.7795V16.5157C19.3647 16.3727 19.3745 16.2371 19.3893 16.2174C19.414 16.178 19.5989 16.1706 19.6359 16.2076C19.6482 16.2199 19.6605 16.3481 19.663 16.4911L19.6679 16.7499L19.912 16.7795C20.3385 16.8288 20.8291 17.0261 21.2877 17.3293C21.512 17.4797 21.729 17.6695 21.8153 17.7953L21.8572 17.8569L21.973 17.7213C22.0371 17.6474 22.1259 17.5487 22.1703 17.5019L22.2492 17.4156V17.0877V16.7598H21.6451H21.0387L21.0461 16.6168L21.0535 16.4763L21.8005 16.4689L22.545 16.464V16.7943V17.1247L22.7127 16.9472C23.0406 16.6045 23.0874 16.5503 23.0874 16.5083C23.0874 16.459 22.6412 16.0621 22.3946 15.8895C22.1604 15.7268 21.7216 15.5025 21.4331 15.3964C21.088 15.2658 20.548 15.1376 20.2399 15.1105C19.981 15.0858 19.3006 15.0587 19.2858 15.071ZM17.9964 16.6119V16.7475L17.4121 16.7549L16.8253 16.7598V17.3342C16.8253 17.6474 16.8154 17.921 16.8031 17.9383C16.7908 17.9605 16.7415 17.9679 16.6626 17.9629L16.5418 17.9555L16.5344 17.2406C16.5319 16.8486 16.5344 16.5108 16.5418 16.4935C16.5492 16.4689 16.707 16.464 17.274 16.4689L17.9964 16.4763V16.6119ZM22.5204 22.0752V22.8H21.7783H21.0387L21.0461 22.6694L21.0535 22.5412L21.6525 22.5338L22.2492 22.5288V21.9396C22.2492 21.2813 22.2368 21.3232 22.4267 21.3405L22.5204 21.3504V22.0752ZM16.8179 21.8804C16.8081 22.1763 16.8081 22.4425 16.8154 22.4721L16.8302 22.5288H17.3948H17.9594V22.6644V22.8L17.2518 22.7951L16.5443 22.7877L16.5369 22.0974C16.5319 21.7177 16.5344 21.3923 16.5418 21.375C16.5492 21.3578 16.6034 21.3454 16.6922 21.3454H16.8327L16.8179 21.8804Z" fill="#11D452"/>
<path d="M30.6315 15.0882C30.2223 15.1103 30.0127 15.1424 29.6528 15.2459C29.0216 15.4234 28.5434 15.6897 28.1538 16.0817C27.7101 16.5255 27.4832 17.0827 27.4586 17.7853C27.4487 18.0614 27.4537 18.1748 27.4882 18.3252C27.5967 18.8208 27.8654 19.2497 28.2697 19.5752C28.5014 19.7625 29.0734 20.0461 29.458 20.1644C29.5912 20.2038 29.601 20.2063 29.5862 20.1669C29.5788 20.1447 29.5394 20.0313 29.4999 19.9154C29.3668 19.5431 29.3742 19.2818 29.5221 18.9711L29.5936 18.8232L29.4038 18.6211C29.1351 18.3351 28.8417 18.0639 28.8219 18.0861C28.8121 18.0959 28.8072 18.0861 28.8121 18.0663C28.8219 18.0146 28.7751 18.0294 28.5877 18.1403C28.2722 18.3252 28.1366 18.3252 27.9566 18.1403C27.8802 18.0639 27.8604 18.022 27.8531 17.9258C27.8333 17.736 27.895 17.6719 28.3042 17.45C28.7184 17.2257 28.7874 17.1985 28.9033 17.2183C29.034 17.2404 29.1326 17.3095 29.3076 17.5018L29.4679 17.6719L29.4827 17.593C29.5271 17.3539 29.7539 17.0703 29.9979 16.9471C30.1705 16.8608 30.4417 16.7942 30.7671 16.7597C31.4821 16.6857 32.3721 16.9273 33.2597 17.4401C33.4569 17.5535 33.5037 17.5708 33.5308 17.5437C33.5703 17.5018 34.3296 16.0916 34.3296 16.0571C34.3296 16.0324 34.231 15.9708 33.8119 15.7292C33.4421 15.5171 32.9712 15.352 32.2957 15.1942C31.8741 15.0956 31.2232 15.0536 30.6315 15.0882Z" fill="#11D452"/>
<path d="M5.48462 16.6341V18.0665L5.8495 18.0517C6.05166 18.0443 6.27601 18.0468 6.35983 18.0616C6.49543 18.0838 6.51762 18.0813 6.6187 18.0271C6.68033 17.995 6.77155 17.9679 6.82333 17.9679C6.92441 17.9679 7.07233 18.0221 7.14136 18.0838C7.17341 18.1133 7.21039 18.1183 7.30161 18.1035C7.36571 18.0936 7.42735 18.0739 7.43721 18.0591C7.44707 18.0419 7.45693 17.7756 7.45693 17.4674V16.9053L8.61074 16.9152C9.92725 16.925 10.0259 16.9374 10.5066 17.142C10.9159 17.317 11.1501 17.4945 11.5125 17.8964C11.6382 18.0345 11.6777 18.064 11.764 18.0788C11.8478 18.0912 11.8823 18.0862 11.9365 18.0468C12.1091 17.9284 12.2891 17.9235 12.4543 18.0345C12.543 18.0961 12.5455 18.0961 12.7896 18.0665C13.0558 18.032 13.3468 18.0468 13.5834 18.1035C13.7807 18.1503 13.7757 18.1503 13.7609 18.069C13.7092 17.8175 13.3665 17.1592 13.1199 16.8338C12.4765 15.9956 11.4459 15.4433 10.1935 15.2658C9.95437 15.2313 9.55991 15.2239 7.69854 15.214L5.48462 15.2017V16.6341Z" fill="#11D452"/>
<path d="M24.3743 19.6492L24.3817 24.0696H25.3555H26.3294L26.3368 19.6492L26.3417 15.2312H25.3555H24.3694L24.3743 19.6492Z" fill="#11D452"/>
<path d="M19.1157 17.1173C18.6004 17.1987 18.1763 17.4304 17.7597 17.8618C17.3504 18.2859 17.1014 18.8086 17.0546 19.3411L17.0398 19.521H17.2296H17.417V19.3904C17.417 19.2227 17.4959 18.9121 17.5896 18.7124C17.6783 18.525 17.9051 18.1897 17.9446 18.1897C17.9619 18.1897 18.0062 18.2218 18.0457 18.2637C18.1344 18.3574 18.1788 18.3574 18.2676 18.2637L18.3391 18.1897L18.2454 18.0936C18.132 17.9777 18.1369 17.9654 18.3415 17.8051C18.5955 17.6079 18.9727 17.4501 19.1921 17.4501C19.3795 17.4501 19.3918 17.4378 19.3844 17.2578C19.3795 17.1691 19.3671 17.0951 19.3523 17.0902C19.34 17.0877 19.2315 17.1 19.1157 17.1173Z" fill="#11D452"/>
<path d="M19.6727 17.0999C19.6653 17.1073 19.6604 17.1813 19.6604 17.2651V17.4155L19.8552 17.4426C19.9612 17.4599 20.1387 17.5067 20.2496 17.5486C20.4395 17.6226 20.7698 17.8173 20.8882 17.9258L20.9424 17.9776L20.8389 18.0836L20.7353 18.1871L20.829 18.2784L20.9227 18.3696L21.0139 18.2784C21.0632 18.2291 21.1174 18.1896 21.1322 18.1896C21.1939 18.1896 21.4453 18.6358 21.5489 18.9243C21.6007 19.0698 21.5834 19.1018 21.4577 19.1018C21.3985 19.1018 21.3911 19.1117 21.3886 19.193C21.3886 19.2448 21.3936 19.336 21.401 19.3977L21.4133 19.5086L21.6894 19.5012C21.8423 19.4963 21.9705 19.4864 21.9754 19.4815C21.9976 19.4618 21.9261 18.9859 21.8793 18.8183C21.8176 18.6063 21.7116 18.3794 21.5883 18.1945C21.4626 18.0096 21.147 17.6743 20.9942 17.5609C20.8068 17.4253 20.4025 17.233 20.188 17.1788C19.971 17.1246 19.6925 17.0827 19.6727 17.0999Z" fill="#11D452"/>
<path d="M32.382 17.6942C32.2391 17.8396 31.9777 18.1034 31.7977 18.276L31.4748 18.5891L31.317 18.5028C30.9743 18.313 30.5872 18.3204 30.2125 18.525L30.0892 18.5916L29.5395 18.0492C29.2387 17.7509 28.9675 17.4945 28.9354 17.4772C28.8615 17.4378 28.8294 17.4501 28.4448 17.6523C28.1095 17.8322 28.0676 17.8741 28.1342 17.9654C28.1884 18.0443 28.2722 18.0295 28.5607 17.8791L28.8294 17.7386L29.0217 17.9136C29.1277 18.0097 29.3693 18.244 29.5592 18.4338L29.9043 18.7814L29.86 18.848C29.6282 19.203 29.6011 19.6024 29.7811 19.9845L29.8747 20.1842L29.3595 20.7143C29.076 21.0077 28.8417 21.2468 28.8368 21.2468C28.8343 21.2468 28.6914 21.1753 28.5212 21.0866C28.2772 20.9584 28.2057 20.9312 28.1687 20.951C28.112 20.9805 28.0799 21.0915 28.1169 21.1359C28.1564 21.1852 28.8245 21.518 28.8787 21.518C28.9058 21.518 29.1524 21.2887 29.4901 20.9485L30.0547 20.379L30.178 20.4382C30.5256 20.6132 30.8215 20.6379 31.1617 20.5195C31.2702 20.4825 31.3762 20.4357 31.3984 20.4184C31.4181 20.3987 31.4477 20.3839 31.46 20.3839C31.4723 20.3839 31.7386 20.6379 32.0492 20.951C32.424 21.3257 32.6335 21.518 32.668 21.518C32.7149 21.518 33.3657 21.2 33.4348 21.1433C33.4915 21.0964 33.4742 20.9781 33.4052 20.946C33.3509 20.9214 33.309 20.9362 33.0502 21.0718C32.8875 21.1531 32.7395 21.2222 32.7223 21.2222C32.705 21.2222 32.4585 20.9904 32.1774 20.7093L31.6671 20.1965L31.7632 20.0116C31.8865 19.7725 31.9259 19.5481 31.889 19.3115C31.8643 19.1414 31.7336 18.8307 31.6893 18.8307C31.6769 18.8307 31.6671 18.8159 31.6671 18.7987C31.6671 18.7642 32.6779 17.7459 32.7149 17.7459C32.7297 17.7459 32.8751 17.815 33.0428 17.8988L33.346 18.0541L33.4076 17.9851C33.452 17.9333 33.4619 17.9037 33.4446 17.8717C33.4224 17.8347 32.7075 17.4254 32.6606 17.4254C32.6508 17.4254 32.5275 17.5463 32.382 17.6942ZM31.0187 19.0132C31.1789 19.0871 31.2751 19.2252 31.2923 19.3978C31.3096 19.5827 31.2825 19.6764 31.1691 19.8046C30.9373 20.0659 30.6489 20.0807 30.4097 19.8415C30.1952 19.6295 30.1829 19.378 30.3777 19.1512C30.5478 18.954 30.7795 18.9022 31.0187 19.0132Z" fill="#11D452"/>
<path d="M30.7424 19.0526C30.7251 19.0797 30.7892 19.1019 30.8262 19.0773C30.8484 19.0649 30.8435 19.0551 30.8065 19.0452C30.7769 19.0378 30.7498 19.0403 30.7424 19.0526Z" fill="#11D452"/>
<path d="M30.8779 19.0797C30.8779 19.092 30.9001 19.1019 30.9248 19.1019C30.9519 19.1019 30.9815 19.1117 30.9889 19.1265C30.9963 19.1388 31.016 19.1512 31.0283 19.1512C31.0752 19.1512 31.0259 19.1068 30.9519 19.0821C30.9075 19.0649 30.8779 19.0649 30.8779 19.0797Z" fill="#11D452"/>
<path d="M31.0828 19.1882C31.0828 19.2079 31.1 19.2252 31.1197 19.2252C31.1493 19.2252 31.1493 19.2178 31.1247 19.1882C31.1074 19.1684 31.0926 19.1512 31.0877 19.1512C31.0852 19.1512 31.0828 19.1684 31.0828 19.1882Z" fill="#11D452"/>
<path d="M19.1822 18.1773C18.837 18.2636 18.4796 18.5249 18.2774 18.838C18.1196 19.0821 18.0703 19.2621 18.0703 19.6196C18.0703 19.9845 18.1221 20.1866 18.2749 20.4208C18.3883 20.5959 18.6201 20.8325 18.7705 20.9287C18.9825 21.0643 19.1699 21.1111 19.5249 21.1111C19.7714 21.1111 19.8774 21.1013 19.981 21.0668C20.3212 20.9509 20.6886 20.6329 20.8488 20.3099C21.1348 19.7404 21.0189 19.0254 20.5702 18.5841C20.3878 18.4041 20.2103 18.2883 19.9909 18.2094C19.8035 18.1403 19.3942 18.1255 19.1822 18.1773ZM19.2167 18.377C19.0787 18.4189 19.0589 18.4189 19.1551 18.3746C19.197 18.3548 19.2512 18.34 19.2784 18.34C19.3055 18.34 19.2784 18.3573 19.2167 18.377ZM19.0688 18.4214C19.0688 18.4288 19.0589 18.4411 19.0441 18.4485C19.0318 18.4559 19.0195 18.451 19.0195 18.4387C19.0195 18.4239 19.0318 18.4115 19.0441 18.4115C19.0589 18.4115 19.0688 18.4165 19.0688 18.4214ZM18.9579 18.4756C18.879 18.5373 18.8223 18.5644 18.8223 18.5397C18.8223 18.5274 18.8592 18.4978 18.9036 18.4756C19.0022 18.4263 19.022 18.4263 18.9579 18.4756ZM18.6595 18.8085C18.6349 18.8356 18.6004 18.8504 18.5831 18.8454C18.5659 18.838 18.5461 18.843 18.5387 18.8553C18.5289 18.8701 18.5116 18.88 18.4993 18.88C18.4845 18.88 18.4919 18.8627 18.5141 18.8405C18.5363 18.8183 18.5708 18.7739 18.593 18.7419C18.625 18.6901 18.6349 18.6877 18.6669 18.7222C18.7015 18.7542 18.699 18.7641 18.6595 18.8085ZM19.2636 18.7567C19.3671 18.8085 19.4633 18.9662 19.4633 19.0846C19.4633 19.2966 19.2759 19.4766 19.054 19.4766C18.8543 19.4766 18.7039 19.341 18.6817 19.1413C18.6447 18.8208 18.9702 18.6063 19.2636 18.7567ZM18.593 18.9194C18.5856 18.9268 18.5511 18.9367 18.5165 18.9391C18.482 18.9391 18.4524 18.9441 18.4524 18.949C18.4524 18.9736 18.5239 19.023 18.5363 19.0082C18.5461 19.0008 18.5461 19.0131 18.5363 19.0402C18.519 19.0871 18.5215 19.0871 18.5659 19.0451C18.6078 19.0082 18.6078 18.9983 18.5757 18.9761C18.5461 18.9539 18.5461 18.9515 18.5733 18.9589C18.625 18.9736 18.63 19.0082 18.5856 19.0649C18.5486 19.1142 18.5486 19.1142 18.5018 19.0525C18.4648 19.0032 18.45 18.9958 18.4253 19.0205C18.3982 19.0476 18.4007 19.0525 18.4352 19.0525C18.4574 19.0525 18.4771 19.0698 18.4771 19.0895C18.4771 19.1092 18.4648 19.1265 18.45 19.1265C18.4377 19.1265 18.4327 19.1142 18.4401 19.1018C18.4475 19.0871 18.4377 19.0772 18.4155 19.0772C18.3859 19.0772 18.3785 19.092 18.3908 19.1265C18.4031 19.161 18.3957 19.1758 18.3686 19.1758C18.3169 19.1758 18.3193 19.1709 18.3933 19.0254C18.4303 18.949 18.4672 18.9046 18.487 18.912C18.5042 18.9194 18.5338 18.9145 18.5535 18.9046C18.588 18.8824 18.6201 18.8948 18.593 18.9194ZM18.519 19.2177C18.5116 19.2424 18.5067 19.2276 18.5067 19.1881C18.5067 19.1462 18.5116 19.129 18.519 19.1438C18.5239 19.161 18.5239 19.1955 18.519 19.2177ZM18.4451 19.2005C18.4377 19.2276 18.4426 19.2498 18.4549 19.2498C18.4672 19.2498 18.4771 19.2621 18.4771 19.2769C18.4771 19.2966 18.4672 19.2966 18.4426 19.2769C18.413 19.2522 18.4155 19.1512 18.4451 19.1512C18.4524 19.1512 18.4524 19.1733 18.4451 19.2005ZM18.3785 19.2153C18.3785 19.235 18.3316 19.2473 18.3193 19.23C18.3119 19.2177 18.3218 19.2079 18.3415 19.2079C18.3612 19.2079 18.3785 19.2128 18.3785 19.2153ZM18.3538 19.3089C18.3538 19.3237 18.3662 19.3188 18.3785 19.2991C18.3908 19.2794 18.4031 19.272 18.4031 19.2867C18.4031 19.2991 18.3908 19.3287 18.3785 19.3484C18.3612 19.378 18.3538 19.378 18.3538 19.3508C18.3538 19.3336 18.339 19.3237 18.3218 19.3311C18.3045 19.3385 18.2897 19.3237 18.2873 19.2966C18.2848 19.267 18.2947 19.2572 18.3193 19.267C18.339 19.2744 18.3538 19.2917 18.3538 19.3089ZM18.5338 19.3114C18.5264 19.3336 18.5141 19.3459 18.5092 19.3385C18.5018 19.3311 18.5042 19.3163 18.5141 19.3015C18.5363 19.2621 18.5511 19.2695 18.5338 19.3114ZM18.4475 19.3582C18.4303 19.378 18.4105 19.3878 18.4056 19.3854C18.3933 19.3706 18.4303 19.3237 18.4549 19.3237C18.4672 19.3237 18.4648 19.3385 18.4475 19.3582ZM18.5264 19.3829C18.5264 19.3878 18.5092 19.4002 18.487 19.4076C18.4672 19.4149 18.4574 19.4125 18.4648 19.3977C18.4796 19.373 18.5264 19.3632 18.5264 19.3829ZM19.4633 19.5062C19.4633 19.5579 19.414 19.5801 19.3819 19.5481C19.3597 19.5259 19.3622 19.5136 19.3893 19.4963C19.4411 19.4618 19.4633 19.4667 19.4633 19.5062ZM20.087 20.014C20.1215 20.0412 20.1585 20.1003 20.1659 20.1422C20.1807 20.2088 20.1733 20.231 20.1191 20.2778C20.0796 20.3124 20.0303 20.3296 19.9982 20.3247C19.9687 20.3173 19.9366 20.3124 19.9268 20.3124C19.8799 20.3074 19.8084 20.2039 19.8084 20.1422C19.8109 19.9869 19.9613 19.9154 20.087 20.014Z" fill="#11D452"/>
<path d="M18.6079 18.7715C18.5907 18.7887 18.5857 18.8085 18.5956 18.8134C18.6055 18.8208 18.6277 18.8109 18.6424 18.7912C18.6597 18.7739 18.6646 18.7542 18.6548 18.7493C18.6449 18.7419 18.6227 18.7518 18.6079 18.7715Z" fill="#11D452"/>
<path d="M6.73205 18.2686C6.70986 18.2982 6.69261 18.3401 6.69261 18.3574C6.69261 18.3845 6.66056 18.3869 6.52742 18.3697C6.22172 18.3327 5.63988 18.3475 5.39334 18.3968C5.26761 18.4215 5.16406 18.451 5.16406 18.4584C5.16406 18.4856 5.74096 18.5866 5.97764 18.6014C6.11324 18.6088 6.27102 18.599 6.42634 18.5743C6.55947 18.5521 6.67781 18.5349 6.69261 18.5349C6.72959 18.5349 6.72219 18.6039 6.68521 18.6261C6.63097 18.6606 6.56934 18.7642 6.56934 18.8258C6.56934 18.8578 6.54222 18.917 6.5077 18.9589C6.47319 18.9984 6.44607 19.06 6.44607 19.092C6.44607 19.2523 6.62111 19.4199 6.80355 19.4421C6.8997 19.452 6.93421 19.4421 7.04516 19.3731C7.16103 19.3016 7.18568 19.2942 7.30895 19.3065C7.70095 19.3484 8.39373 19.4914 8.45289 19.5481C8.46522 19.558 8.44303 19.6073 8.40112 19.6616C8.26306 19.8341 8.10527 20.0979 8.04117 20.2606C7.94256 20.5146 7.84394 21.2591 7.88585 21.4292C7.89818 21.4835 7.91544 21.4933 7.9968 21.4933C8.04857 21.4933 8.10281 21.4785 8.11514 21.4613C8.12993 21.4465 8.14719 21.3035 8.15705 21.1482C8.17924 20.7167 8.24827 20.4998 8.45536 20.1867C8.5737 20.0067 8.78572 19.8169 8.86708 19.8169C8.89913 19.8169 8.92872 19.8514 8.96077 19.9254C9.0224 20.0585 9.05199 20.0856 9.19991 20.1226C9.37495 20.167 9.37002 20.2261 9.19498 20.2483C8.97802 20.2754 8.96077 20.3026 8.96077 20.6502C8.96077 20.8449 8.97063 20.9559 8.99282 20.983C9.01993 21.0224 9.07417 21.0249 9.54013 21.02L10.0579 21.0126L10.0653 20.6847C10.0677 20.4973 10.0603 20.3395 10.0455 20.3124C10.0283 20.2754 9.98144 20.2606 9.8631 20.2483C9.73243 20.2335 9.70778 20.2237 9.71764 20.1891C9.72504 20.1645 9.77188 20.1349 9.83844 20.1177C9.93953 20.0905 10.0283 20.0042 10.1195 19.844C10.154 19.7799 10.2724 19.8391 10.4301 20.0018C10.7161 20.2927 10.832 20.5861 10.8838 21.1507C10.8986 21.3183 10.9183 21.4638 10.9232 21.4736C10.9306 21.4835 10.9849 21.4933 11.0465 21.4933H11.155V21.2764C11.155 20.6625 10.9898 20.1226 10.6841 19.7454C10.6175 19.664 10.5633 19.5851 10.5633 19.5728C10.5633 19.5013 11.4237 19.3238 11.7688 19.3238C11.8872 19.3238 11.9365 19.3361 12.008 19.3854C12.1904 19.5087 12.4345 19.4471 12.538 19.2498C12.6169 19.1019 12.5824 18.9293 12.4715 18.9293C12.4468 18.9293 12.437 18.8973 12.437 18.8184C12.437 18.7296 12.4271 18.7025 12.3753 18.668C12.3408 18.6458 12.3137 18.6113 12.3137 18.5891C12.3137 18.5571 12.3433 18.5546 12.5307 18.5743C12.935 18.6138 13.3615 18.5965 13.6031 18.5324C13.7239 18.5004 13.8201 18.4609 13.8201 18.4486C13.8201 18.4338 13.7338 18.4067 13.6278 18.382C13.3763 18.3302 12.8585 18.3253 12.6021 18.3746C12.4961 18.3943 12.3975 18.4116 12.3852 18.4116C12.3729 18.4116 12.3408 18.3672 12.3137 18.313C12.2866 18.2587 12.2471 18.2144 12.2274 18.2144C12.1904 18.2144 12.1732 18.2316 12.0746 18.3574L12.0302 18.4141L11.8083 18.3746C11.6875 18.3549 11.4681 18.3352 11.3226 18.3352C11.0588 18.3327 10.5386 18.4017 10.5386 18.4387C10.5386 18.456 10.6619 18.4856 11.044 18.562C11.2314 18.599 11.6604 18.599 11.8897 18.5595C12.114 18.5225 12.1461 18.5423 12.0326 18.6458C11.9562 18.7173 11.9439 18.742 11.9439 18.8406V18.9565L11.7171 18.9417C11.4681 18.9244 10.9331 18.8677 10.6372 18.8283C10.5362 18.8135 10.3365 18.7666 10.1935 18.7198C9.88036 18.6187 9.56972 18.5743 9.35523 18.5965C9.26647 18.6064 9.06185 18.6581 8.89913 18.7099C8.51946 18.8356 7.81682 18.9293 7.25471 18.9293H7.08707V18.8209C7.08707 18.7025 7.04023 18.6335 6.9638 18.6335C6.90709 18.6335 6.87258 18.5842 6.91203 18.5595C6.92928 18.5497 6.99831 18.5521 7.06981 18.5669C7.28676 18.6039 7.84148 18.5965 8.09788 18.5497C8.40852 18.4954 8.52686 18.4609 8.5022 18.4387C8.37647 18.3253 7.45934 18.3031 7.04516 18.4042C7.00571 18.4141 6.98352 18.4042 6.97366 18.3722C6.94654 18.2982 6.86025 18.2144 6.81341 18.2144C6.78876 18.2144 6.75177 18.239 6.73205 18.2686ZM9.63135 20.5244C9.69792 20.5836 9.68806 20.6921 9.61163 20.7513C9.57465 20.7808 9.53274 20.803 9.51548 20.803C9.45384 20.803 9.35523 20.7019 9.35523 20.6378C9.35523 20.5023 9.52781 20.4308 9.63135 20.5244Z" fill="#11D452"/>
<path d="M13.8891 18.7592C13.793 18.8109 13.4133 18.8824 13.1372 18.8972L12.8413 18.912L12.8512 19.0575C12.8709 19.3089 12.7304 19.5456 12.4888 19.6664C12.3951 19.7157 12.1042 19.7453 12.0524 19.7108C12.0401 19.7034 12.0278 19.8069 12.0253 19.9401C12.013 20.3839 11.8429 20.904 11.5741 21.3207C11.2068 21.8853 10.4696 22.2773 9.61908 22.3562C9.4613 22.371 8.93617 22.3808 8.39871 22.3759L7.45447 22.3685L7.44954 20.9632L7.44461 19.5579L7.38297 19.5505C7.34599 19.5456 7.24737 19.5801 7.15369 19.6319C7.02056 19.6985 6.95646 19.7182 6.85291 19.7182C6.47324 19.7182 6.14288 19.4125 6.17986 19.0969C6.18726 19.0377 6.19712 18.9736 6.20205 18.9539C6.20944 18.9243 6.1626 18.9145 5.94072 18.8997C5.79279 18.8898 5.62761 18.8701 5.5783 18.8578L5.48462 18.8356V21.4612V24.0844L7.67389 24.0745L9.86069 24.0647L10.2502 24.0006C11.0515 23.865 11.51 23.7072 12.0179 23.3941C12.8882 22.8517 13.5514 21.9913 13.8275 21.0372C13.9804 20.5121 14.042 19.8069 13.9927 19.1635C13.9606 18.7616 13.9508 18.7246 13.8891 18.7592Z" fill="#11D452"/>
<path d="M32.0368 18.9637C32.0368 18.9687 32.059 19.0254 32.0885 19.0895C32.1551 19.2398 32.1773 19.5431 32.1354 19.7206C32.1181 19.7946 32.0738 19.9277 32.0343 20.0164L31.9677 20.1816L32.2069 20.4109C32.3376 20.5391 32.5225 20.7166 32.6161 20.8103L32.7912 20.9755L32.9736 20.8596C33.2078 20.7141 33.3484 20.6698 33.4568 20.7043C33.5752 20.7437 33.6812 20.8769 33.7009 21.01C33.7231 21.1481 33.7058 21.1998 33.6097 21.2935C33.5061 21.3946 32.8282 21.7595 32.6778 21.7965C32.5693 21.8211 32.5545 21.8359 32.5077 21.937C32.4238 22.1219 32.303 22.2427 32.0885 22.3536C31.773 22.5164 31.5807 22.5583 31.0876 22.5607C30.6192 22.5632 30.3406 22.5262 29.919 22.4029C29.3594 22.2427 28.8096 21.9715 28.3288 21.6239C28.208 21.5351 28.0971 21.4587 28.0798 21.4538C28.0626 21.4464 28.0305 21.4858 28.0034 21.5475C27.9763 21.6066 27.9048 21.7471 27.8431 21.863C27.4832 22.5262 27.2539 22.9823 27.2736 22.9946C27.2835 23.002 27.3599 23.0612 27.4413 23.1228C28.1439 23.6702 29.1473 24.0597 30.2001 24.1928C30.5896 24.2446 31.4254 24.252 31.7779 24.2076C32.2981 24.1435 32.7616 24.003 33.2202 23.7712C33.5826 23.5863 33.8439 23.3768 34.0929 23.0686C34.3 22.8097 34.4282 22.5459 34.517 22.1958C34.5786 21.9542 34.586 21.8803 34.5885 21.5055C34.5885 21.0593 34.5687 20.936 34.443 20.6254C34.2655 20.189 33.8981 19.7773 33.4544 19.5135C33.2103 19.3705 32.8183 19.1979 32.4288 19.0673C32.1181 18.9613 32.0368 18.9391 32.0368 18.9637Z" fill="#11D452"/>
<path d="M0.00148925 19.2745C0.0138162 19.4397 0.0853126 20.0215 0.149413 20.4949C0.304732 21.629 0.694264 23.123 1.19474 24.5012C1.70754 25.9188 2.55317 27.5903 3.35442 28.7663C3.95844 29.6588 3.95105 29.6464 4.40221 30.2209C4.72025 30.6277 5.02349 30.9777 5.593 31.599C5.79762 31.8209 6.01458 32.0576 6.07375 32.1266L6.18469 32.2499L6.11073 32.3115C5.30701 32.9969 4.05706 34.4885 3.70697 35.1788C3.50974 35.5708 3.69465 35.8148 4.05213 35.6349C4.43919 35.4376 5.36125 34.703 5.92583 34.1384C6.19455 33.8697 6.67777 33.3347 6.85035 33.1103C6.91691 33.0265 6.97855 32.9575 6.98594 32.9575C6.99334 32.9575 7.15606 33.0857 7.34589 33.241C8.12249 33.8746 9.18507 34.6142 10.1195 35.1689C10.3635 35.3168 11.2289 35.7631 11.6603 35.9677C13.3269 36.7566 15.139 37.2891 16.9363 37.516C17.6315 37.6047 17.952 37.622 18.8223 37.6244C20.0254 37.6244 20.7379 37.5579 21.8892 37.3311C22.5278 37.2078 22.8976 37.1166 23.3734 36.9736C23.6027 36.9045 23.8689 36.8257 23.9626 36.7985C24.3176 36.695 25.5676 36.1797 26.1371 35.9011C26.5118 35.7162 26.5612 35.6891 27.1923 35.3316C28.3535 34.6709 29.5024 33.8376 30.4072 32.9944C30.629 32.7923 31.1246 32.2893 31.1246 32.2721C31.1246 32.2622 31.0728 32.2277 31.0087 32.1932C30.8312 32.0995 30.666 31.959 30.5403 31.7987L30.4269 31.6508L30.3381 31.7248C29.029 32.8145 27.1898 33.9017 25.4788 34.5969C24.0785 35.1664 22.6535 35.5634 21.2556 35.7803C19.4756 36.054 18.0013 36.0466 16.2829 35.7557C15.8022 35.6743 15.6888 35.6447 15.706 35.6151C15.7258 35.5856 16.7415 35.0851 16.9412 35.0062C17.1458 34.9273 17.8559 34.7153 18.3169 34.5969C18.8568 34.4589 19.5422 34.3208 20.5037 34.1532C22.6732 33.7809 23.9897 33.3864 24.8428 32.8564C25.2126 32.6271 25.5824 32.2967 25.8487 31.959C25.9645 31.811 26.0705 31.6804 26.0829 31.6656C26.1396 31.6089 26.2974 31.3229 26.4132 31.0788C26.6548 30.571 26.8225 29.9645 26.9186 29.247C26.9581 28.9561 26.9679 28.8822 27.0074 28.4458C27.0222 28.2905 27.0394 28.113 27.0444 28.0513C27.0567 27.9527 27.037 27.9823 26.8521 28.3348C26.64 28.7441 26.3935 29.1583 26.1987 29.4319C25.9325 29.8067 25.3802 30.3072 25.003 30.5143C24.473 30.8052 23.9725 30.921 23.0011 30.9728C22.5648 30.995 22.0569 31.0345 21.8301 31.0616C21.5515 31.0936 20.7921 31.244 20.5012 31.3204C19.875 31.4881 19.0565 31.9146 18.5264 32.346C18.3539 32.4866 17.7597 33.0635 17.7745 33.0758C17.7794 33.0807 17.8361 33.0561 17.9027 33.024C18.0309 32.9575 18.2602 32.8638 18.6177 32.7257C19.4041 32.4225 20.4494 32.2277 21.941 32.1069C22.4661 32.065 23.0135 31.9861 23.1688 31.9319C23.3068 31.8825 23.2773 31.9171 23.1195 31.9886C22.7102 32.171 22.1555 32.3362 21.5342 32.4619C21.337 32.5014 21.0436 32.5679 20.8809 32.6098C20.7182 32.6493 20.3558 32.7331 20.0772 32.7947C19.197 32.9895 18.556 33.204 17.8854 33.527C16.9042 34.0003 16.1399 34.6216 15.5482 35.4253C15.4891 35.5042 15.4225 35.5708 15.4003 35.5708C15.2968 35.5708 14.5498 35.3711 14.0518 35.2084C12.3284 34.6512 10.6988 33.8425 8.97058 32.6863C8.32958 32.2548 8.15454 32.1192 8.24576 32.1192C8.2926 32.1192 8.5416 31.9491 8.66734 31.8308L8.78814 31.7198L9.05194 31.9146C9.5105 32.2548 10.0874 32.6222 10.6618 32.9377C11.1746 33.2213 11.9389 33.6133 12.1435 33.6995C12.9399 34.0299 13.5759 34.2789 14.0641 34.4466C14.429 34.5748 15.5063 34.8805 15.5877 34.8805C15.6099 34.8805 15.7159 34.7325 15.7159 34.7005C15.7159 34.6931 15.5902 34.6463 15.4398 34.5945C13.9285 34.0965 12.8018 33.559 11.2289 32.5852C10.3956 32.0675 8.97551 30.9851 8.89169 30.8002C8.86704 30.7485 8.87936 30.7337 9.04208 30.6252C9.94195 30.031 10.9108 29.1016 11.6727 28.0982C12.0992 27.541 12.2643 27.2969 12.3309 27.1391C12.4098 26.9468 12.4049 26.863 12.3112 26.7841C12.22 26.7077 12.2348 26.7077 12.0375 26.7693C11.6579 26.8852 10.5361 27.7407 9.78663 28.4852C9.35272 28.9167 8.8054 29.5922 8.50462 30.068C8.36656 30.2899 8.36163 30.2948 8.31479 30.2529C8.27534 30.2184 8.2211 30.2085 8.0288 30.2085C7.76994 30.2085 7.69844 30.2283 7.49135 30.3589C7.22755 30.5241 7.11414 30.6844 7.06237 30.9654C7.04511 31.0591 7.02785 31.1331 7.02046 31.1331C7.0032 31.1331 6.55943 30.7213 5.99732 30.1839C5.22319 29.4443 4.1754 28.2609 3.71683 27.6076C3.63794 27.4917 3.49248 27.292 3.3988 27.1638C3.10542 26.7693 3.03639 26.6608 2.42004 25.6476C2.31403 25.4701 2.04037 24.9548 1.81355 24.5012C1.21693 23.3104 0.76083 22.1393 0.415675 20.9263C0.25789 20.3692 0.248028 20.3248 0.109966 19.6813C0.0310739 19.3164 -0.00837232 19.171 0.00148925 19.2745ZM8.1718 30.7805C8.32219 30.8841 8.39368 31.0098 8.39368 31.1676C8.39368 31.5374 8.0436 31.7519 7.72803 31.5744C7.46176 31.424 7.4593 30.9753 7.72556 30.7953C7.83157 30.7238 8.07811 30.7164 8.1718 30.7805Z" fill="#11D452"/>
<path d="M17.0595 19.9327C17.131 20.5565 17.417 21.1137 17.8854 21.55C18.1122 21.7596 18.3316 21.8977 18.6472 22.0234C18.8419 22.0998 19.2512 22.2058 19.3597 22.2083C19.3794 22.2083 19.3893 22.1565 19.3893 22.0259V21.8459L19.2487 21.8311C18.9578 21.7991 18.4598 21.5821 18.2429 21.3898L18.1294 21.2887L18.2305 21.1852L18.3341 21.0816L18.2404 21.0027L18.1467 20.9263L18.0555 21.0151C18.0012 21.0668 17.947 21.0989 17.9273 21.0915C17.9076 21.0841 17.8262 20.9682 17.7448 20.8326C17.5772 20.554 17.4465 20.1941 17.4243 19.95L17.4096 19.7922H17.2271H17.0447L17.0595 19.9327Z" fill="#11D452"/>
<path d="M21.3913 20.241L21.3987 20.6921L21.3272 20.8179C21.2902 20.8894 21.2236 20.9855 21.1842 21.0348L21.1102 21.126L21.0141 21.0373C20.9623 20.9904 20.9105 20.951 20.8982 20.951C20.8883 20.951 20.8489 20.9806 20.8095 21.0151C20.7577 21.0595 20.7429 21.0891 20.7601 21.1112C20.7725 21.1285 20.8144 21.1827 20.8563 21.2345L20.9278 21.3257L20.844 21.3948C20.6048 21.592 20.2178 21.767 19.8899 21.8311L19.6606 21.8755V22.0284C19.6606 22.2059 19.6433 22.1985 19.9466 22.1566C20.4939 22.0801 21.0979 21.7079 21.4554 21.2271C21.7734 20.7957 21.978 20.2582 21.978 19.8514V19.7923H21.6797H21.3839L21.3913 20.241Z" fill="#11D452"/>
<path d="M15.3929 24.0918C15.3855 24.0992 15.171 24.1387 14.9146 24.1806C12.7672 24.5282 11.2633 24.9498 10.0159 25.5588C9.59181 25.7658 9.50553 25.8349 9.80384 25.7338C10.1613 25.6105 10.4399 25.539 10.9453 25.4404C11.7293 25.2851 12.1977 25.2383 12.9546 25.2383C13.5611 25.2407 13.8002 25.2678 13.4723 25.2999C12.7377 25.3714 11.537 25.5883 10.7333 25.7954C9.59428 26.0863 8.42815 26.5671 7.45679 27.144C7.23983 27.2747 6.68758 27.6593 6.69991 27.6716C6.70238 27.6765 6.81825 27.6248 6.95138 27.5582C7.26942 27.4029 8.23585 27.0552 8.7881 26.895C9.72001 26.6287 10.1736 26.5326 10.97 26.434C11.6085 26.3551 12.1509 26.36 12.4615 26.4463C12.9793 26.5942 13.179 26.7323 13.322 27.0405C13.3713 27.1489 13.3861 27.2278 13.3984 27.4472L13.4132 27.7184L13.4773 27.5828C13.6819 27.1613 14.2859 26.0888 15.1833 24.5504C15.314 24.3285 15.42 24.1313 15.42 24.114C15.42 24.0795 15.4101 24.0746 15.3929 24.0918Z" fill="#11D452"/>
<path d="M34.379 24.8759C34.1325 25.226 33.5235 25.9902 33.2646 26.2738C33.0058 26.5598 32.2686 27.3092 32.0122 27.5484C31.7829 27.7629 31.0409 28.4162 30.8362 28.5814C30.7524 28.6479 30.6785 28.7194 30.6711 28.7367C30.6637 28.754 30.7031 28.8254 30.7623 28.8969C30.819 28.9684 30.9422 29.1287 31.0359 29.252C31.1839 29.4541 31.2085 29.4763 31.248 29.4492C31.317 29.3999 31.8372 28.8501 32.1133 28.5321C32.4338 28.1647 32.5867 27.9724 32.9614 27.467C33.3657 26.9222 33.4865 26.7373 33.8933 26.0445C34.1374 25.6303 34.5984 24.6639 34.5688 24.6318C34.5614 24.6269 34.4776 24.7378 34.379 24.8759Z" fill="#11D452"/>
<path d="M34.761 26.3329C34.5515 26.7323 34.2655 27.1934 33.8242 27.8541C33.4396 28.4285 33.336 28.5666 32.8701 29.1459C32.737 29.3111 32.5496 29.5478 32.451 29.676L32.271 29.9077L32.3425 29.9595C32.4806 30.0581 32.6038 30.1765 32.6556 30.2628L32.7098 30.3491L32.8652 30.105C32.9514 29.9718 33.0402 29.8363 33.0624 29.8042C33.1388 29.6957 33.5703 28.9758 33.6639 28.8033C33.9647 28.2411 34.1324 27.9231 34.1891 27.8048C34.374 27.4078 34.443 27.2525 34.5392 27.0158C34.5959 26.8729 34.7068 26.6041 34.7832 26.4143C34.8621 26.2269 34.9213 26.0691 34.9164 26.0667C34.9114 26.0617 34.8424 26.1801 34.761 26.3329Z" fill="#11D452"/>
<path d="M27.1431 26.6139C27.0642 26.6903 27.1579 27.0157 27.3452 27.3091C27.8112 28.0438 28.9083 29.2592 29.6701 29.8879C29.8575 30.0432 30.39 30.4056 30.6464 30.556C30.6784 30.5757 30.6908 30.6078 30.6858 30.6546C30.6834 30.6941 30.6735 30.8494 30.6661 30.9998C30.6513 31.2611 30.6538 31.2833 30.713 31.414C30.8338 31.6753 31.1025 31.8947 31.3835 31.9588C31.5019 31.986 31.6572 31.986 31.8396 31.9613C31.9259 31.949 31.9284 31.949 32.096 32.198C32.313 32.5185 32.774 33.1003 33.0477 33.4011C33.3682 33.7512 33.9673 34.333 34.2187 34.5401C34.8992 35.0973 35.2986 35.3882 35.5969 35.5435C35.8138 35.6569 35.873 35.6668 35.9667 35.5928C36.0678 35.5139 36.0579 35.3537 35.9371 35.1219C35.6363 34.5426 34.9559 33.6673 34.2409 32.9425C33.664 32.3607 33.3756 32.1166 32.7888 31.7271C32.668 31.6457 32.5398 31.557 32.5078 31.5323L32.4461 31.4855L32.5004 31.3203C32.5719 31.1033 32.5719 30.8617 32.5028 30.6719C32.4634 30.5634 32.4116 30.4895 32.2834 30.3637C32.1429 30.2232 32.0936 30.1936 31.9506 30.1492C31.7533 30.0876 31.4871 30.0827 31.312 30.1344C31.2455 30.1542 31.1888 30.169 31.1863 30.1665C31.1814 30.1616 31.1617 30.1196 31.137 30.0728C31.0482 29.8978 30.6045 29.2642 30.4023 29.025C30.1434 28.7168 29.4285 28.0167 29.0537 27.7036C28.5779 27.3091 27.7668 26.7445 27.4907 26.6188C27.3625 26.5621 27.1973 26.5572 27.1431 26.6139ZM31.8668 30.6571C31.9999 30.7754 32.0393 30.8642 32.0443 31.0318C32.0492 31.1502 32.0369 31.1896 31.9802 31.2784C31.8248 31.5126 31.4624 31.5496 31.2825 31.3499C31.1123 31.1625 31.1049 30.879 31.2652 30.7064C31.3613 30.6053 31.4575 30.5684 31.6227 30.5659C31.7533 30.5659 31.7755 30.5733 31.8668 30.6571Z" fill="#11D452"/>
<path d="M26.4157 28.1696C25.9128 28.6849 25.3852 29.03 24.7097 29.2889C24.5297 29.3579 24.0391 29.528 23.6175 29.6661C22.7669 29.9472 22.3158 30.1419 21.8227 30.4353C21.6501 30.5389 21.512 30.6276 21.517 30.6325C21.5219 30.6375 21.5589 30.6301 21.5983 30.6177C21.7315 30.5734 22.5278 30.5167 23.334 30.492C24.2486 30.4649 24.3177 30.455 24.7047 30.2726C25.077 30.0951 25.2792 29.9521 25.5947 29.6365C25.9991 29.2297 26.2283 28.9068 26.4699 28.3989C26.5858 28.1524 26.6943 27.9009 26.6795 27.9034C26.677 27.9058 26.5587 28.0242 26.4157 28.1696Z" fill="#11D452"/>
<path d="M28.8787 29.9224C28.6618 30.0778 28.0208 30.4352 27.1308 30.8987C26.8744 31.0319 26.7881 31.0886 26.7609 31.1453C26.5588 31.5397 26.2531 32.0303 26.1717 32.0944C26.1643 32.1018 26.1076 32.1684 26.0484 32.2424C25.8783 32.4569 25.5209 32.7946 25.3187 32.9351C25.2176 33.0042 25.1338 33.0658 25.1338 33.0707C25.1338 33.0929 26.2605 32.6713 26.5637 32.5308C26.6525 32.4914 26.8522 32.4026 27.0075 32.3361C27.7372 32.018 28.6692 31.5003 29.2609 31.0861C29.6504 30.8149 29.924 30.6078 29.9339 30.5758C29.9388 30.5585 29.7613 30.4081 29.5419 30.238C29.32 30.0679 29.1179 29.9052 29.0932 29.8781C29.0661 29.8485 29.039 29.8263 29.0291 29.8263C29.0192 29.8263 28.9527 29.8682 28.8787 29.9224Z" fill="#11D452"/>
<path d="M31.7805 32.558C31.7386 32.595 31.5389 32.7799 31.3367 32.9722C31.1321 33.162 30.8757 33.3962 30.7672 33.4874C30.6588 33.5811 30.5651 33.665 30.5577 33.6724C30.4862 33.7537 29.6874 34.3849 29.357 34.6215C28.5903 35.1713 27.9887 35.5436 27.291 35.9035C27.0618 36.0219 26.8226 36.1476 26.761 36.1821C26.5342 36.3054 25.5233 36.7393 24.9859 36.9439C24.4731 37.1387 23.7828 37.368 23.3341 37.4912C23.021 37.5775 22.1014 37.7846 21.8548 37.8265C21.559 37.8758 21.5245 37.8906 21.7439 37.8734C22.2394 37.8364 23.6447 37.5973 24.1846 37.4592C25.3828 37.156 26.7955 36.6801 27.8334 36.2339C28.3881 35.9948 29.6751 35.3266 30.1336 35.0382C31.1149 34.4218 31.1568 34.3947 31.5093 34.1482C31.9358 33.8499 32.0295 33.7808 32.2243 33.6329C32.4536 33.4554 32.53 33.3839 32.53 33.3519C32.53 33.3371 32.4856 33.2804 32.4289 33.2237C32.318 33.1053 31.995 32.6862 31.9235 32.5654C31.8988 32.5235 31.8717 32.489 31.8643 32.4914C31.8569 32.4914 31.82 32.5235 31.7805 32.558Z" fill="#11D452"/>
<path d="M17.4071 35.1318C17.3849 35.1614 17.3775 35.1934 17.3873 35.2033C17.4219 35.2378 18.8715 35.3241 18.8715 35.2945C18.8715 35.2871 18.763 35.2674 18.6324 35.2526C18.4351 35.228 17.9396 35.154 17.5229 35.0874C17.4613 35.0776 17.4367 35.0874 17.4071 35.1318Z" fill="#11D452"/>
</svg>
