<svg width="24" height="24" viewBox="0 0 24 24" fill="none" xmlns="http://www.w3.org/2000/svg">
<g clip-path="url(#clip0_204_3645)">
<path d="M5.25 18.9371C6.18198 18.9371 6.9375 18.1816 6.9375 17.2496C6.9375 16.3177 6.18198 15.5621 5.25 15.5621C4.31802 15.5621 3.5625 16.3177 3.5625 17.2496C3.5625 18.1816 4.31802 18.9371 5.25 18.9371Z" fill="#1C3326"/>
<path d="M5.25 12.1869C3.90781 12.1884 2.62103 12.7223 1.67196 13.6713C0.722887 14.6204 0.189027 15.9072 0.1875 17.2494C0.1875 21.3004 4.80194 23.6542 4.99841 23.7526C5.07654 23.7916 5.16267 23.8119 5.25 23.8119C5.33733 23.8119 5.42346 23.7916 5.50159 23.7526C5.69806 23.6542 10.3125 21.3004 10.3125 17.2494C10.311 15.9072 9.77711 14.6204 8.82804 13.6713C7.87897 12.7223 6.59219 12.1884 5.25 12.1869ZM5.25 20.0619C4.69374 20.0619 4.14997 19.8969 3.68746 19.5879C3.22495 19.2789 2.86446 18.8396 2.65159 18.3257C2.43872 17.8118 2.38302 17.2463 2.49154 16.7007C2.60006 16.1551 2.86793 15.654 3.26126 15.2607C3.6546 14.8673 4.15574 14.5995 4.70131 14.4909C5.24688 14.3824 5.81238 14.4381 6.3263 14.651C6.84021 14.8639 7.27947 15.2243 7.58851 15.6868C7.89755 16.1494 8.0625 16.6931 8.0625 17.2494C8.06169 17.9951 7.76511 18.71 7.23784 19.2372C6.71057 19.7645 5.99567 20.0611 5.25 20.0619Z" fill="#1C3326"/>
<path d="M23.812 5.2494C23.8139 4.35027 23.5758 3.46694 23.1223 2.69057C22.6687 1.9142 22.0162 1.27295 21.2321 0.832989C20.448 0.393033 19.5606 0.170323 18.6617 0.18785C17.7627 0.205376 16.8847 0.462503 16.1183 0.932689C14.8016 0.437777 13.4062 0.185113 11.9995 0.1869C10.4157 0.188238 8.84828 0.507843 7.39037 1.12673C5.93246 1.74562 4.61379 2.65118 3.51267 3.78962C2.41155 4.92806 1.55043 6.27617 0.980456 7.75389C0.410483 9.23161 0.143279 10.8088 0.194711 12.3918C0.199259 12.5378 0.260442 12.6764 0.365318 12.7781C0.470193 12.8799 0.610533 12.9368 0.756645 12.9369L0.774409 12.9367C0.923522 12.932 1.06468 12.8684 1.16686 12.7596C1.26903 12.6509 1.32388 12.5061 1.31933 12.357C1.29423 11.6412 1.34243 10.9247 1.46318 10.2187C1.98803 10.4407 2.56633 10.5045 3.12695 10.4022C4.92726 10.1283 4.94391 9.54563 7.47771 10.8198L9.23974 11.7061C11.1097 12.645 11.9065 11.2222 11.758 10.1334C11.6855 9.72854 11.5531 9.33678 11.365 8.97102C11.1341 8.46801 10.8887 7.95846 11.2191 7.52192C11.6641 6.93231 11.6313 6.53108 11.2944 5.84651C11.1796 5.63517 11.1177 5.39916 11.1141 5.15868C11.1104 4.9182 11.1651 4.68042 11.2735 4.46571C11.4894 4.01433 11.7616 3.59209 12.0835 3.20906L13.4638 1.41252C14.0125 1.48773 14.5543 1.60636 15.0843 1.76729C14.1877 2.70491 13.6873 3.95213 13.687 5.2494C13.687 9.30043 18.3015 11.6542 18.4979 11.7526C18.5761 11.7916 18.6622 11.8119 18.7495 11.8119C18.8368 11.8119 18.923 11.7916 19.0011 11.7526C20.2531 11.0895 21.3692 10.1968 22.2912 9.12114C22.555 10.0578 22.6882 11.0263 22.687 11.9994C22.6861 12.4286 22.6594 12.8573 22.6072 13.2833L20.8653 13.7221C19.2087 14.1389 19.2314 14.8717 18.5091 16.122C17.8717 17.2224 15.3549 19.025 14.3735 19.4987C13.0004 20.1595 11.6668 20.6642 11.3056 22.6616C10.8202 22.631 10.3374 22.5679 9.86049 22.4728C9.71436 22.4438 9.56266 22.4738 9.43868 22.5565C9.3147 22.6391 9.22856 22.7676 9.19918 22.9136C9.16979 23.0597 9.19955 23.2115 9.28192 23.3356C9.3643 23.4598 9.49256 23.5462 9.63857 23.5759C11.3546 23.9233 13.1264 23.8853 14.826 23.4648C16.5256 23.0442 18.1106 22.2516 19.4667 21.144C20.8227 20.0364 21.9159 18.6416 22.6674 17.0602C23.4188 15.4788 23.8098 13.7503 23.812 11.9994C23.8141 10.6187 23.5702 9.24865 23.0916 7.95353C23.5577 7.12804 23.8057 6.19735 23.812 5.2494ZM12.4547 22.6753C12.8349 21.2352 13.959 20.9469 14.8622 20.512C15.9987 19.9636 18.6847 18.0638 19.4825 16.6856C20.2084 15.433 19.9953 15.1015 21.1399 14.813L22.389 14.4984C21.8431 16.7539 20.5791 18.771 18.7873 20.2458C16.9955 21.7206 14.7731 22.5733 12.4547 22.6753ZM11.1915 2.52388C10.8083 2.98317 10.4868 3.49051 10.2349 4.03303C10.0648 4.39598 9.98075 4.79335 9.98945 5.19412C9.99815 5.59489 10.0993 5.98823 10.2851 6.34346C10.3487 6.4531 10.3947 6.57204 10.4215 6.69593C10.3926 6.74847 10.3589 6.79824 10.3208 6.84462C9.69537 7.67565 9.90143 8.47849 10.3424 9.43995C10.4821 9.70627 10.5834 9.99101 10.6433 10.2857C10.6802 10.5556 10.5678 10.8546 10.4122 10.9008C10.2434 10.9498 9.93116 10.7944 9.74531 10.701L7.98327 9.81477C5.06867 8.3492 4.61172 9.03774 2.95739 9.28999C2.75156 9.32165 2.09133 9.38585 1.72708 9.05745C2.37372 6.80752 3.74048 4.8318 5.61779 3.43323C7.49511 2.03467 9.77933 1.29046 12.1202 1.31474L11.1915 2.52388ZM18.7495 10.6074C17.8439 10.0838 14.812 8.11574 14.812 5.2494C14.812 4.20511 15.2269 3.20359 15.9653 2.46517C16.7037 1.72674 17.7052 1.3119 18.7495 1.3119C19.7938 1.3119 20.7953 1.72674 21.5338 2.46517C22.2722 3.20359 22.687 4.20511 22.687 5.2494C22.687 8.11574 19.6551 10.0838 18.7495 10.6074Z" fill="black"/>
<path d="M18.75 2.43689C18.1937 2.43689 17.65 2.60184 17.1875 2.91088C16.7249 3.21992 16.3645 3.65918 16.1516 4.17309C15.9387 4.68701 15.883 5.25251 15.9915 5.79808C16.1001 6.34365 16.3679 6.84479 16.7613 7.23813C17.1546 7.63146 17.6557 7.89933 18.2013 8.00785C18.7469 8.11637 19.3124 8.06067 19.8263 7.8478C20.3402 7.63493 20.7795 7.27444 21.0885 6.81193C21.3976 6.34942 21.5625 5.80565 21.5625 5.24939C21.5617 4.50372 21.2651 3.78882 20.7378 3.26155C20.2106 2.73428 19.4957 2.4377 18.75 2.43689ZM18.75 6.93689C18.4162 6.93689 18.09 6.83792 17.8125 6.65249C17.535 6.46707 17.3187 6.20352 17.191 5.89517C17.0632 5.58682 17.0298 5.24752 17.0949 4.92017C17.16 4.59283 17.3208 4.29215 17.5568 4.05615C17.7928 3.82015 18.0934 3.65943 18.4208 3.59431C18.7481 3.5292 19.0874 3.56262 19.3958 3.69034C19.7041 3.81807 19.9677 4.03436 20.1531 4.31186C20.3385 4.58937 20.4375 4.91563 20.4375 5.24939C20.437 5.69679 20.2591 6.12573 19.9427 6.44209C19.6263 6.75846 19.1974 6.9364 18.75 6.93689Z" fill="black"/>
<path d="M12.3006 17.4728C12.5157 17.6727 12.7903 17.7967 13.0825 17.8258C13.3747 17.855 13.6684 17.7877 13.9187 17.6343C14.5696 17.2634 14.8975 16.4466 15.2957 16.2764C15.429 16.2317 15.5675 16.204 15.7079 16.194C15.9464 16.1742 16.181 16.1215 16.4051 16.0376C16.7625 15.8715 17.0581 15.5964 17.2493 15.2518C17.4405 14.9072 17.5175 14.5108 17.4693 14.1196C17.3561 13.0653 16.5542 12.3283 15.613 11.8308C15.0656 11.5431 14.4326 11.4634 13.831 11.6063C12.0926 12.0145 11.1676 12.6271 11.4799 14.2782L11.9179 16.5932C11.9551 16.9179 12.0884 17.2242 12.3006 17.4728ZM14.0881 12.7016C14.425 12.6208 14.7799 12.6647 15.0869 12.8252C15.6644 13.1304 16.2811 13.5896 16.3505 14.2394C16.3725 14.3886 16.3486 14.5411 16.282 14.6764C16.2153 14.8118 16.1091 14.9237 15.9774 14.9972C15.8454 15.0402 15.7088 15.0671 15.5705 15.0774C13.9914 15.2709 13.9961 16.2953 13.3617 16.6569C13.3251 16.6798 13.2843 16.695 13.2417 16.7016C13.1991 16.7082 13.1555 16.7061 13.1138 16.6954C13.0673 16.5973 13.0367 16.4924 13.0233 16.3846L12.5853 14.0693C12.4705 13.462 12.3566 13.1077 14.0881 12.7016Z" fill="black"/>
</g>
<defs>
<clipPath id="clip0_204_3645">
<rect width="24" height="24" fill="white"/>
</clipPath>
</defs>
</svg>
