<svg width="18" height="22" viewBox="0 0 18 22" fill="none" xmlns="http://www.w3.org/2000/svg">
<path d="M3.375 11.0937C2.85 11.0937 2.40625 10.9125 2.04375 10.55C1.68125 10.1875 1.5 9.74375 1.5 9.21875C1.5 8.69375 1.68125 8.25 2.04375 7.8875C2.40625 7.525 2.85 7.34375 3.375 7.34375C3.9 7.34375 4.34375 7.525 4.70625 7.8875C5.06875 8.25 5.25 8.69375 5.25 9.21875C5.25 9.74375 5.06875 10.1875 4.70625 10.55C4.34375 10.9125 3.9 11.0937 3.375 11.0937ZM6.75 8.09375C6.225 8.09375 5.78125 7.9125 5.41875 7.55C5.05625 7.1875 4.875 6.74375 4.875 6.21875C4.875 5.69375 5.05625 5.25 5.41875 4.8875C5.78125 4.525 6.225 4.34375 6.75 4.34375C7.275 4.34375 7.71875 4.525 8.08125 4.8875C8.44375 5.25 8.625 5.69375 8.625 6.21875C8.625 6.74375 8.44375 7.1875 8.08125 7.55C7.71875 7.9125 7.275 8.09375 6.75 8.09375ZM11.25 8.09375C10.725 8.09375 10.2812 7.9125 9.91875 7.55C9.55625 7.1875 9.375 6.74375 9.375 6.21875C9.375 5.69375 9.55625 5.25 9.91875 4.8875C10.2812 4.525 10.725 4.34375 11.25 4.34375C11.775 4.34375 12.2188 4.525 12.5813 4.8875C12.9438 5.25 13.125 5.69375 13.125 6.21875C13.125 6.74375 12.9438 7.1875 12.5813 7.55C12.2188 7.9125 11.775 8.09375 11.25 8.09375ZM14.625 11.0937C14.1 11.0937 13.6563 10.9125 13.2938 10.55C12.9313 10.1875 12.75 9.74375 12.75 9.21875C12.75 8.69375 12.9313 8.25 13.2938 7.8875C13.6563 7.525 14.1 7.34375 14.625 7.34375C15.15 7.34375 15.5938 7.525 15.9563 7.8875C16.3188 8.25 16.5 8.69375 16.5 9.21875C16.5 9.74375 16.3188 10.1875 15.9563 10.55C15.5938 10.9125 15.15 11.0937 14.625 11.0937ZM4.9875 18.5938C4.425 18.5938 3.95312 18.3781 3.57188 17.9469C3.19063 17.5156 3 17.0062 3 16.4187C3 15.7687 3.22188 15.2 3.66563 14.7125C4.10938 14.225 4.55 13.7437 4.9875 13.2687C5.35 12.8812 5.6625 12.4594 5.925 12.0031C6.1875 11.5469 6.5 11.1187 6.8625 10.7187C7.1375 10.3937 7.45625 10.125 7.81875 9.9125C8.18125 9.7 8.575 9.59375 9 9.59375C9.425 9.59375 9.81875 9.69375 10.1813 9.89375C10.5438 10.0938 10.8625 10.3562 11.1375 10.6812C11.4875 11.0812 11.7969 11.5125 12.0656 11.975C12.3344 12.4375 12.65 12.8687 13.0125 13.2687C13.45 13.7437 13.8906 14.225 14.3344 14.7125C14.7781 15.2 15 15.7687 15 16.4187C15 17.0062 14.8094 17.5156 14.4281 17.9469C14.0469 18.3781 13.575 18.5938 13.0125 18.5938C12.3375 18.5938 11.6688 18.5375 11.0063 18.425C10.3438 18.3125 9.675 18.2562 9 18.2562C8.325 18.2562 7.65625 18.3125 6.99375 18.425C6.33125 18.5375 5.6625 18.5938 4.9875 18.5938Z" fill="white" fill-opacity="0.7"/>
</svg>
