<svg width="18" height="22" viewBox="0 0 18 22" fill="none" xmlns="http://www.w3.org/2000/svg">
<path d="M5.25 18.5V15.5H0L2.8875 11H1.5L6.75 3.5L9 6.725L11.25 3.5L16.5 11H15.1125L18 15.5H12.75V18.5H9.75V15.5H8.25V18.5H5.25ZM12.5438 14H15.2625L12.3563 9.5H13.6125L11.25 6.125L9.91875 8.01875L12 11H10.6125L12.5438 14ZM2.7375 14H10.7625L7.85625 9.5H9.1125L6.75 6.125L4.3875 9.5H5.64375L2.7375 14ZM2.7375 14H5.64375H4.3875H6.75H9.1125H7.85625H10.7625H2.7375ZM12.5438 14H10.6125H12H9.91875H11.25H13.6125H12.3563H15.2625H12.5438Z" fill="black"/>
</svg>
