<svg width="25" height="28" viewBox="0 0 25 28" fill="none" xmlns="http://www.w3.org/2000/svg">
<path d="M12.0101 23.7222C10.6652 23.7222 9.40127 23.467 8.2184 22.9565C7.03553 22.4461 6.00659 21.7534 5.13159 20.8784C4.25659 20.0034 3.56388 18.9745 3.05347 17.7916C2.54305 16.6087 2.28784 15.3449 2.28784 13.9999C2.28784 12.655 2.54305 11.3911 3.05347 10.2083C3.56388 9.02541 4.25659 7.99647 5.13159 7.12147C6.00659 6.24647 7.03553 5.55376 8.2184 5.04335C9.40127 4.53293 10.6652 4.27772 12.0101 4.27772C13.355 4.27772 14.6189 4.53293 15.8017 5.04335C16.9846 5.55376 18.0135 6.24647 18.8885 7.12147C19.7635 7.99647 20.4562 9.02541 20.9667 10.2083C21.4771 11.3911 21.7323 12.655 21.7323 13.9999C21.7323 15.3449 21.4771 16.6087 20.9667 17.7916C20.4562 18.9745 19.7635 20.0034 18.8885 20.8784C18.0135 21.7534 16.9846 22.4461 15.8017 22.9565C14.6189 23.467 13.355 23.7222 12.0101 23.7222ZM11.0378 21.7291V19.8333C10.5031 19.8333 10.0454 19.6429 9.66458 19.2621C9.28379 18.8813 9.0934 18.4236 9.0934 17.8888V16.9166L4.42673 12.2499C4.37812 12.5416 4.33356 12.8333 4.29305 13.1249C4.25254 13.4166 4.23229 13.7083 4.23229 13.9999C4.23229 15.9606 4.87638 17.6782 6.16458 19.1527C7.45277 20.6273 9.07719 21.4861 11.0378 21.7291ZM17.7462 19.2499C18.4105 18.5208 18.9169 17.7065 19.2653 16.8072C19.6137 15.9079 19.7878 14.9722 19.7878 13.9999C19.7878 12.412 19.3463 10.9618 18.4632 9.64925C17.5801 8.33675 16.4013 7.38883 14.9267 6.8055V7.19439C14.9267 7.72911 14.7363 8.18687 14.3556 8.56765C13.9748 8.94844 13.517 9.13883 12.9823 9.13883H11.0378V11.0833C11.0378 11.3587 10.9447 11.5896 10.7583 11.776C10.572 11.9623 10.3411 12.0555 10.0656 12.0555H8.12118V13.9999H13.9545C14.23 13.9999 14.4609 14.0931 14.6472 14.2795C14.8336 14.4658 14.9267 14.6967 14.9267 14.9722V17.8888H15.899C16.3202 17.8888 16.701 18.0144 17.0413 18.2656C17.3816 18.5167 17.6165 18.8449 17.7462 19.2499Z" fill="#13EC5B"/>
</svg>
