<svg width="24" height="24" viewBox="0 0 24 24" fill="none" xmlns="http://www.w3.org/2000/svg">
<path d="M9.6488 3.44092C7.5521 1.3453 3.44912 1.10229 0.544902 1.10229C0.244125 1.10229 0 1.34637 0 1.64715C0 4.55137 0.241929 8.65435 2.33863 10.7511C3.22354 11.636 4.5803 12.0316 5.92506 12.0316C7.38644 12.0316 8.83475 11.5641 9.6488 10.75C11.2105 9.18837 11.4971 5.28808 9.6488 3.44092ZM8.87837 9.98062C7.7123 11.1456 4.47461 11.345 3.11024 9.98062C1.41781 8.28824 1.12464 4.85 1.09302 2.19532C3.7477 2.22694 7.18594 2.52005 8.87832 4.21248C10.2427 5.57686 10.0433 8.81567 8.87837 9.98062Z" fill="#13EC5B"/>
<path d="M23.4551 3.25781C20.5509 3.25781 16.4479 3.49974 14.3511 5.59644C12.5029 7.4436 12.7895 11.3439 14.3511 12.9055C15.1652 13.7185 16.6124 14.186 18.0738 14.186C19.4186 14.186 20.7743 13.7915 21.6613 12.9067C23.757 10.81 24 6.70698 24 3.80271C24 3.50194 23.7559 3.25781 23.4551 3.25781ZM20.8887 12.1351C19.5243 13.4994 16.2855 13.3 15.1206 12.1351C13.9556 10.9701 13.7562 7.7313 15.1206 6.36693C16.813 4.6745 20.2512 4.38138 22.9059 4.34976C22.8743 7.00551 22.5811 10.4438 20.8887 12.1351Z" fill="#13EC5B"/>
<path d="M19.5199 7.97437C19.3914 7.70082 19.023 7.60713 18.7516 7.73351C14.5724 9.69837 12.5193 13.1246 11.5864 16.6467C10.4323 9.15781 7.09436 6.87476 5.67875 5.90597C5.50221 5.785 5.36489 5.69673 5.28863 5.62154C5.07612 5.40903 4.73065 5.40903 4.51814 5.62154C4.30564 5.83404 4.30564 6.17952 4.51814 6.39202C4.62603 6.49884 4.81238 6.63288 5.06412 6.80503C6.65954 7.8959 10.8976 10.7958 10.8976 22.3528C10.8976 22.6536 11.1418 22.8977 11.4425 22.8977C11.7433 22.8977 11.9874 22.6536 11.9874 22.3539C11.9874 17.6843 13.2418 11.5282 19.2159 8.72089C19.2159 8.71982 19.3042 8.67839 19.3042 8.67839C19.5755 8.54977 19.6485 8.24679 19.5199 7.97437Z" fill="#13EC5B"/>
</svg>
