<svg width="28" height="28" viewBox="0 0 28 28" fill="none" xmlns="http://www.w3.org/2000/svg">
<g clip-path="url(#clip0_121_1727)">
<path d="M16.9936 11.9314C17.2179 11.5056 18.1016 10.6474 18.1016 9.02344C18.1016 5.71402 15.0126 5.09179 14.8484 4.97552C14.8369 4.85527 14.8076 4.54584 14.7987 4.45151C14.5568 1.91368 12.4499 0 9.89844 0C7.37423 0 5.27379 1.91461 5.0126 4.45326L4.95895 4.97394C4.79489 5.08949 1.64062 5.70112 1.64062 9.02344C1.64062 10.6455 2.52492 11.5068 2.74854 11.9314C2.59109 12.0965 0 13.4153 0 16.4609C0 19.175 2.26248 21.3281 4.97656 21.3281H14.8203C17.5344 21.3281 19.7422 19.1203 19.7422 16.4062C19.7422 13.3426 17.1806 12.1276 16.9936 11.9314Z" fill="#13EC5B"/>
<path d="M25.2514 11.9314C25.4757 11.5056 26.3593 10.6474 26.3593 9.02344C26.3593 5.71402 23.2157 5.09179 23.0515 4.97552C23.04 4.85527 23.0107 4.54584 23.0018 4.45151C22.7599 1.91368 20.653 0 18.1015 0C16.9938 0 15.9799 0.384508 15.155 1.01298C15.7575 1.82498 16.1944 2.77238 16.3704 3.82599C19.2872 5.21106 19.7422 7.62792 19.7422 9.02344C19.7422 10.0761 19.469 10.91 19.163 11.5333C20.653 12.8791 21.3828 14.5021 21.3828 16.4062C21.3828 18.3755 20.4929 20.1243 19.1148 21.3281H23.0234C25.7375 21.3281 28 19.1203 28 16.4062C28 13.3426 25.4384 12.1276 25.2514 11.9314Z" fill="#13EC5B"/>
<path d="M21.3828 26.3594V22.9688H18.1016V26.3594H11.5391V22.9688H8.25781V26.3594H4.97656V28H24.6641V26.3594H21.3828Z" fill="#13EC5B"/>
</g>
<defs>
<clipPath id="clip0_121_1727">
<rect width="28" height="28" fill="white"/>
</clipPath>
</defs>
</svg>
