<svg width="25" height="28" viewBox="0 0 25 28" fill="none" xmlns="http://www.w3.org/2000/svg">
<path d="M12.0101 23.7222C10.6652 23.7222 9.40127 23.467 8.2184 22.9565C7.03553 22.4461 6.00659 21.7534 5.13159 20.8784C4.25659 20.0034 3.56388 18.9745 3.05347 17.7916C2.54305 16.6087 2.28784 15.3449 2.28784 13.9999C2.28784 12.655 2.54305 11.3911 3.05347 10.2083C3.56388 9.02541 4.25659 7.99647 5.13159 7.12147C6.00659 6.24647 7.03553 5.55376 8.2184 5.04335C9.40127 4.53293 10.6652 4.27772 12.0101 4.27772C13.355 4.27772 14.6189 4.53293 15.8017 5.04335C16.9846 5.55376 18.0135 6.24647 18.8885 7.12147C19.7635 7.99647 20.4562 9.02541 20.9667 10.2083C21.4771 11.3911 21.7323 12.655 21.7323 13.9999C21.7323 15.3449 21.4771 16.6087 20.9667 17.7916C20.4562 18.9745 19.7635 20.0034 18.8885 20.8784C18.0135 21.7534 16.9846 22.4461 15.8017 22.9565C14.6189 23.467 13.355 23.7222 12.0101 23.7222ZM12.0101 21.7777C12.9175 21.7777 13.7722 21.6359 14.5743 21.3524C15.3764 21.0688 16.1096 20.6678 16.774 20.1493L15.3885 18.7638C14.9186 19.1041 14.3961 19.3674 13.8208 19.5538C13.2456 19.7401 12.642 19.8333 12.0101 19.8333C10.3897 19.8333 9.01238 19.2661 7.87812 18.1319C6.74386 16.9976 6.17673 15.6203 6.17673 13.9999C6.17673 12.3796 6.74386 11.0023 7.87812 9.868C9.01238 8.73374 10.3897 8.16661 12.0101 8.16661C13.6304 8.16661 15.0077 8.73374 16.142 9.868C17.2763 11.0023 17.8434 12.3796 17.8434 13.9999C17.8434 14.6319 17.7462 15.2395 17.5517 15.8229C17.3573 16.4062 17.0899 16.9328 16.7496 17.4027L18.1351 18.7881C18.6536 18.1238 19.0587 17.3865 19.3503 16.5763C19.642 15.7661 19.7878 14.9074 19.7878 13.9999C19.7878 11.8286 19.0344 9.98953 17.5274 8.48258C16.0205 6.97564 14.1814 6.22217 12.0101 6.22217C9.83877 6.22217 7.99965 6.97564 6.4927 8.48258C4.98576 9.98953 4.23229 11.8286 4.23229 13.9999C4.23229 16.1712 4.98576 18.0104 6.4927 19.5173C7.99965 21.0243 9.83877 21.7777 12.0101 21.7777ZM12.0101 17.8888C12.3665 17.8888 12.7109 17.8443 13.0431 17.7552C13.3752 17.666 13.6871 17.5324 13.9788 17.3541L12.4962 15.8715C12.4152 15.9039 12.3341 15.9241 12.2531 15.9322C12.1721 15.9403 12.0911 15.9444 12.0101 15.9444C11.4753 15.9444 11.0176 15.754 10.6368 15.3732C10.256 14.9924 10.0656 14.5347 10.0656 13.9999C10.0656 13.4652 10.256 13.0075 10.6368 12.6267C11.0176 12.2459 11.4753 12.0555 12.0101 12.0555C12.5448 12.0555 13.0025 12.2459 13.3833 12.6267C13.7641 13.0075 13.9545 13.4652 13.9545 13.9999C13.9545 14.0972 13.9505 14.1903 13.9424 14.2795C13.9343 14.3686 13.914 14.4536 13.8816 14.5347L15.3399 15.993C15.5182 15.7013 15.6559 15.3894 15.7531 15.0572C15.8503 14.7251 15.899 14.3726 15.899 13.9999C15.899 12.9305 15.5182 12.015 14.7566 11.2534C13.995 10.4918 13.0795 10.1111 12.0101 10.1111C10.9406 10.1111 10.0251 10.4918 9.26354 11.2534C8.50196 12.015 8.12118 12.9305 8.12118 13.9999C8.12118 15.0694 8.50196 15.9849 9.26354 16.7465C10.0251 17.508 10.9406 17.8888 12.0101 17.8888Z" fill="#13EC5B"/>
</svg>
